<svg xmlns="http://www.w3.org/2000/svg" version="1.1" xmlns:xlink="http://www.w3.org/1999/xlink" width="512" height="512" x="0" y="0" viewBox="0 0 512 512" style="enable-background:new 0 0 512 512" xml:space="preserve" class=""><g><path fill="#e26b44" d="m414.1 205-15.708 111.078L414.1 449.8l45.9 11.526 45.9-11.526V205z" opacity="1" data-original="#e4dfeb" class=""></path><path fill="#c9c9de" d="M505.9 449.8V511h-91.8l-12.444-30.6 12.444-30.6z" opacity="1" data-original="#c9c9de" class=""></path><path fill="#c9c9de" d="M465.1 256h-51c-5.633 0-10.2-4.567-10.2-10.2s4.567-10.2 10.2-10.2h51c5.633 0 10.2 4.567 10.2 10.2s-4.567 10.2-10.2 10.2zM465.1 296.8h-51c-5.633 0-10.2-4.567-10.2-10.2s4.567-10.2 10.2-10.2h51c5.633 0 10.2 4.567 10.2 10.2s-4.567 10.2-10.2 10.2zM465.1 337.6h-51c-5.633 0-10.2-4.567-10.2-10.2s4.567-10.2 10.2-10.2h51c5.633 0 10.2 4.567 10.2 10.2s-4.567 10.2-10.2 10.2zM465.1 378.4h-51c-5.633 0-10.2-4.567-10.2-10.2s4.567-10.2 10.2-10.2h51c5.633 0 10.2 4.567 10.2 10.2s-4.567 10.2-10.2 10.2zM465.1 419.2h-51c-5.633 0-10.2-4.567-10.2-10.2s4.567-10.2 10.2-10.2h51c5.633 0 10.2 4.567 10.2 10.2s-4.567 10.2-10.2 10.2z" opacity="1" data-original="#78c0f6" class=""></path><path fill="#e26b44" d="M6.1 205v244.8L52 465.1l45.9-15.3 17.34-118.218L97.9 205z" opacity="1" data-original="#e4dfeb" class=""></path><path fill="#c9c9de" d="m97.9 449.8 17.34 30.6L97.9 511H6.1v-61.2z" opacity="1" data-original="#c9c9de" class=""></path><path fill="#c9c9de" d="M97.9 256h-51c-5.633 0-10.2-4.567-10.2-10.2s4.567-10.2 10.2-10.2h51c5.633 0 10.2 4.567 10.2 10.2S103.533 256 97.9 256zM97.9 296.8h-51c-5.633 0-10.2-4.567-10.2-10.2s4.567-10.2 10.2-10.2h51c5.633 0 10.2 4.567 10.2 10.2s-4.567 10.2-10.2 10.2zM97.9 337.6h-51c-5.633 0-10.2-4.567-10.2-10.2s4.567-10.2 10.2-10.2h51c5.633 0 10.2 4.567 10.2 10.2s-4.567 10.2-10.2 10.2zM97.9 378.4h-51c-5.633 0-10.2-4.567-10.2-10.2S41.267 358 46.9 358h51c5.633 0 10.2 4.567 10.2 10.2s-4.567 10.2-10.2 10.2zM97.9 419.2h-51c-5.633 0-10.2-4.567-10.2-10.2s4.567-10.2 10.2-10.2h51c5.633 0 10.2 4.567 10.2 10.2s-4.567 10.2-10.2 10.2z" opacity="1" data-original="#78c0f6" class=""></path><path fill="#ffa300" d="M97.9 72.4V511h316.2V72.4z" opacity="1" data-original="#f1ebf8" class=""></path><circle cx="256" cy="77.5" r="66.3" fill="#c9c9de" opacity="1" data-original="#e06666" class=""></circle><path fill="#e26b44" d="m256 368.2 5.304 71.4L256 511h-56.1V368.2z" opacity="1" data-original="#e4dfeb" class=""></path><g fill="#78c0f6"><path d="M138.7 184.6h51v51h-51zM230.5 184.6h51v51h-51zM322.3 184.6h51v51h-51zM322.3 276.4h51v51h-51zM230.5 276.4h51v51h-51zM138.7 276.4h51v51h-51z" fill="#c9c9de" opacity="1" data-original="#78c0f6" class=""></path></g><path fill="#c9c9de" d="M256 368.2h56.1V511H256z" opacity="1" data-original="#c9c9de" class=""></path><path fill="#ffa300" d="M255.886 113.637c-5.634-.018-10.186-4.599-10.168-10.232l.163-51.875a10.199 10.199 0 0 1 10.232-10.168c5.634.018 10.186 4.599 10.168 10.232l-.163 51.875a10.198 10.198 0 0 1-10.232 10.168z" opacity="1" data-original="#f1ebf8" class=""></path><path fill="#ffa300" d="m281.905 87.782-51.875-.163c-5.634-.018-10.186-4.599-10.168-10.232a10.199 10.199 0 0 1 10.232-10.168l51.875.163c5.634.018 10.186 4.599 10.168 10.232a10.199 10.199 0 0 1-10.232 10.168z" opacity="1" data-original="#f1ebf8" class=""></path><path fill="#e26b44" d="M256 154c-42.183 0-76.5-34.317-76.5-76.5S213.817 1 256 1s76.5 34.317 76.5 76.5S298.183 154 256 154zm0-132.6c-30.934 0-56.1 25.166-56.1 56.1s25.166 56.1 56.1 56.1 56.1-25.166 56.1-56.1-25.166-56.1-56.1-56.1z" opacity="1" data-original="#c63269" class=""></path></g></svg>