<svg xmlns="http://www.w3.org/2000/svg" version="1.1" xmlns:xlink="http://www.w3.org/1999/xlink" width="512" height="512" x="0" y="0" viewBox="0 0 496.2 496.2" style="enable-background:new 0 0 512 512" xml:space="preserve" class=""><g><path d="M0 248.1C0 111.1 111.1 0 248.1 0s248.1 111.1 248.1 248.1-111.1 248.1-248.1 248.1S0 385.1 0 248.1z" style="" fill="#fac870" data-original="#334d5c" class="" opacity="1"></path><path d="M249.1 347.4c.1 0 .3 0 .4-.1-.1-.1-.1-.2-.2-.2 0 .1-.1.2-.2.3zM345.8 377.4h-.3c.1.1.2.1.3.2v-.2z" style="" fill="#ebaa95" data-original="#f2a5a5" class="" opacity="1"></path><path d="M248.1 151.1v-.1c-89.1 89.1-89.1 233.5 0 322.5v.1c89-89 89-233.4 0-322.5zM150.4 377.5v.3c.1-.1.2-.1.3-.2-.1-.1-.2-.1-.3-.1z" style="" fill="#ebaa95" data-original="#f2a5a5" class="" opacity="1"></path><path d="M299 346.4c-.1.1-.2.1-.3.2.1 0 .2.1.3.1v-.3z" style="" fill="#ebaa95" data-original="#f2a5a5" class="" opacity="1"></path><path d="M118.6 178.3c-45.9 117.3 12.1 249.5 129.5 295.3v.1c45.8-117.3-12.2-249.6-129.5-295.4z" style="" fill="#e78c64" data-original="#e28d8d" class="" opacity="1"></path><path d="M120 424.9c0 .1.1.2.1.2.1-.1.1-.2.2-.3-.1.1-.2.1-.3.1zM196.6 346.4c.1.1.2.1.3.2-.1 0-.2.1-.3.1-.1-.2 0-.2 0-.3z" style="" fill="#ebaa95" data-original="#f2a5a5" class="" opacity="1"></path><path d="M377 178.3c45.8 117.2-12.2 249.5-129.5 295.3v.1C201.7 356.4 259.7 224.1 377 178.3z" style="" fill="#e78c64" data-original="#e28d8d" class="" opacity="1"></path><path d="M375.5 424.9c0 .1-.1.2-.1.2-.1-.1-.1-.2-.2-.3.1.1.2.1.3.1z" style="" fill="#ebaa95" data-original="#f2a5a5" class="" opacity="1"></path><path d="M249.2 336.5c-.1.1-.1.2-.2.3h.4c-.1-.2-.1-.3-.2-.3zM20.1 245.5c-.1 125.9 102 228 228 228l.1.1c-.1-126-102.2-228.1-228.1-228.1zM111.1 474.7l.2.2v-.4c0 .1-.1.2-.2.2zM247.2 336.5c.1.1.1.2.2.3h-.4c.1-.2.2-.3.2-.3zM476.4 245.5c.1 125.9-102 228-228 228l-.1.1c0-126 102.1-228.1 228.1-228.1zM385.4 474.7l-.2.2v-.4c0 .1.1.2.2.2z" style="" fill="#e26b44" data-original="#ce8282" class="" opacity="1"></path><path d="m328.2 396.1 29.5-17.8-3.8-2.2-10.7 4-3.6-7.3-4.2-.2-1.1-1.4-8.7 2.1-.7 6.3-17.1-23.8c-4.5-11.6-3.8-63.2-15.3-69.2-8.2-4.3-20.5-4.9-20.5-4.9v-.1c-4.8-.6-9.5-.9-13.6-1-.3-.5-2.4-4.5-.3-12.5 2.9-2.4 5.8-6 8-11 .6-1.4 1.2-3 1.7-4.6 1.9.2 3.2-.6 4.3-6.9 1.1-6.4-.2-7.6-2-8.1.4.2.7.2.7.2v-1.2c-.2-17.2-3.7-25.7-11.2-29.1 0-.3.1-.5.1-.8 0-4.4-5.2-7.9-11.5-7.9s-11.5 3.5-11.5 7.9c0 .3 0 .5.1.8-7.5 3.4-11.1 11.8-11.2 29.1v1.2h.1c-1.5.6-2.4 2.2-1.5 7.9 1.1 6.4 2.4 7.1 4.3 6.9.5 1.7 1.1 3.2 1.7 4.6 2.2 5 5.1 8.5 8 11 2.1 8 0 12-.3 12.5-4.1.1-8.9.3-13.6 1-.2 0-12.3.6-20.5 4.9-11.5 6-10.8 57.6-15.3 69.2l-17.1 23.8-.7-6.3-8.7-2.1-1.1 1.4-4.2.2-3.6 7.3-10.7-4-3.8 2.2 29.5 17.8c-4.1 1.5-7.4 4.5-9 9.9-5.6 18.5 13.3 22.1 27 27.4 5.8 2.2 15.9 4.7 27.8 7.2-14.9 4.8-24.8 12.3-23.4 15.7 0 0 28.1-4.1 57.7-9.2 29.6 5.2 57.7 9.2 57.7 9.2 1.4-3.4-8.5-11-23.4-15.7 12-2.5 22-5 27.8-7.2 13.6-5.2 32.6-8.8 27-27.4-1.7-5.3-5-8.3-9.1-9.8zm4.6-20.8 4.3 1.6 1.5 4.9-5.2 1.9-2.9-7.1 2.3-1.3zM159 376.8l4.3-1.6 2.3 1.2-2.9 7.1-5.2-1.9 1.5-4.8zm9.3 19.2 36.8-36.8c2.5-7.3 3.5-16.1 4.7-27.5 2.7-11.5 2.3-20.2 5.2-21-.7 4.3-1 8.5-.4 12 2.2 13.5 6.1 33.4-1.5 85-6.4-3.6-11.3-6.2-12.9-6.8-7.5-2.9-22-8.3-31.9-4.9zm127.7 4.9c-1.7.6-6.5 3.2-12.9 6.8-7.6-51.7-3.7-71.5-1.5-85 .6-3.5.3-7.6-.4-12 2.9.8 2.4 9.5 5.2 21 1.3 11.4 2.2 20.2 4.7 27.5l36.8 36.8c-9.9-3.4-24.4 2-31.9 4.9z" style="" fill="#fac870" data-original="#efdfdf" class="" opacity="1"></path></g></svg>