<svg xmlns="http://www.w3.org/2000/svg" version="1.1" xmlns:xlink="http://www.w3.org/1999/xlink" width="512" height="512" x="0" y="0" viewBox="0 0 512 512" style="enable-background:new 0 0 512 512" xml:space="preserve" class=""><g><path fill="#ffa300" d="M358.467 459.482H55.161c-9.329 0-16.651-7.999-15.828-17.291l29.392-331.858a10.593 10.593 0 0 1 10.552-9.658H334.35a10.593 10.593 0 0 1 10.552 9.658l29.392 331.858c.824 9.292-6.498 17.291-15.827 17.291z" opacity="1" data-original="#6cbff8" class=""></path><path fill="#e26b44" d="m374.295 442.19-29.392-331.858a10.592 10.592 0 0 0-10.552-9.658h-30a10.593 10.593 0 0 1 10.552 9.658l29.392 331.858c.823 9.292-6.499 17.291-15.828 17.291h30c9.329.001 16.651-7.998 15.828-17.291z" opacity="1" data-original="#5fa7ee" class=""></path><path fill="#ffffff" d="M261.206 260.265h-32.343a2.236 2.236 0 0 1-2.236-2.236v-32.343a3.354 3.354 0 0 0-3.354-3.354h-32.919a3.354 3.354 0 0 0-3.354 3.354v32.343a2.236 2.236 0 0 1-2.236 2.236h-32.343a3.354 3.354 0 0 0-3.354 3.354v32.918a3.354 3.354 0 0 0 3.354 3.354h32.343a2.236 2.236 0 0 1 2.236 2.236v32.343a3.354 3.354 0 0 0 3.354 3.354h32.919a3.354 3.354 0 0 0 3.354-3.354v-32.343a2.236 2.236 0 0 1 2.236-2.236h32.343a3.354 3.354 0 0 0 3.354-3.354v-32.918a3.353 3.353 0 0 0-3.354-3.354z" opacity="1" data-original="#ddebfd" class=""></path><path fill="#ffa300" d="M438.89 325.596H328.091v-45.495a6.138 6.138 0 0 1 6.138-6.138h98.523a6.138 6.138 0 0 1 6.138 6.138z" opacity="1" data-original="#407194" class=""></path><path fill="#ffa300" d="M432.752 273.964h-30a6.138 6.138 0 0 1 6.138 6.138v45.495h30v-45.495a6.138 6.138 0 0 0-6.138-6.138z" opacity="1" data-original="#365f7e" class=""></path><path fill="#e26b44" d="M458.269 325.596H308.713c-7.986 0-14.461 6.474-14.461 14.461v149.982c0 7.986 6.474 14.461 14.461 14.461h149.556c7.986 0 14.461-6.474 14.461-14.461V340.057c-.001-7.986-6.475-14.461-14.461-14.461z" opacity="1" data-original="#ffa95f" class=""></path><path fill="#e26b44" d="M458.269 325.596h-30c7.986 0 14.461 6.474 14.461 14.461v149.982c0 7.986-6.474 14.461-14.461 14.461h30c7.986 0 14.461-6.474 14.461-14.461V340.057c-.001-7.987-6.475-14.461-14.461-14.461z" opacity="1" data-original="#ff8b5a" class=""></path><circle cx="383.491" cy="415.048" r="41.134" fill="#ffffff" opacity="1" data-original="#ddebfd" class=""></circle><path fill="#ffffff" d="M163.692 500.213c-15.287-8.826-20.525-28.374-11.699-43.661l34.586-59.905c8.826-15.287 28.374-20.525 43.661-11.699s20.525 28.374 11.699 43.661l-34.586 59.905c-8.827 15.287-28.374 20.525-43.661 11.699z" opacity="1" data-original="#ddebfd" class=""></path><path fill="#91c9c6" d="m169.286 426.599-17.293 29.953c-8.826 15.287-3.588 34.835 11.699 43.661s34.835 3.588 43.661-11.699l17.293-29.953z" opacity="1" data-original="#df646e" class=""></path><path d="M223.275 214.827h-32.918c-5.985 0-10.854 4.869-10.854 10.854v27.078h-27.078c-5.985 0-10.854 4.869-10.854 10.854v32.918c0 5.985 4.869 10.854 10.854 10.854h27.078v27.078c0 5.985 4.869 10.854 10.854 10.854h32.918c5.985 0 10.854-4.869 10.854-10.854v-27.078h27.078c5.985 0 10.854-4.869 10.854-10.854v-32.918c0-5.985-4.869-10.854-10.854-10.854h-27.078V225.68c0-5.984-4.87-10.853-10.854-10.853zm33.786 52.932v24.626h-28.197c-5.368 0-9.736 4.368-9.736 9.736v28.197h-24.626V302.12c0-5.368-4.368-9.736-9.736-9.736h-28.197v-24.626h28.197c5.368 0 9.736-4.368 9.736-9.736v-28.197h24.626v28.197c0 5.368 4.368 9.736 9.736 9.736h28.197z" fill="#000000" opacity="1" data-original="#000000" class=""></path><path d="M472.725 367.016a7.5 7.5 0 0 0 7.5-7.5v-19.467c0-12.109-9.851-21.96-21.96-21.96h-11.878v-37.994c0-7.52-6.118-13.637-13.637-13.637h-66.495l-13.884-156.787c-.827-9.408-8.574-16.503-18.021-16.503h-32.41C300.88 41.614 258.619 0 206.816 0s-94.064 41.614-95.123 93.168H79.284c-9.447 0-17.193 7.095-18.02 16.498l-10.07 113.677a7.499 7.499 0 0 0 6.809 8.132c4.115.363 7.766-2.683 8.132-6.809l10.07-113.682a3.11 3.11 0 0 1 3.079-2.817h32.384v28.782a7.5 7.5 0 0 0 15 0v-28.782h160.297v28.782a7.5 7.5 0 0 0 15 0v-28.782h32.385a3.111 3.111 0 0 1 3.079 2.822l13.768 155.469h-16.968c-7.52 0-13.637 6.118-13.637 13.637v37.994h-11.878c-12.109 0-21.96 9.851-21.96 21.96v111.92h-49.645l11.328-19.621c5.27-9.128 6.67-19.763 3.942-29.944s-9.258-18.691-18.386-23.961c-9.129-5.27-19.764-6.671-29.944-3.942-10.181 2.728-18.691 9.258-23.961 18.386l-34.111 59.082h-90.81a8.297 8.297 0 0 1-6.188-2.725 8.304 8.304 0 0 1-2.171-6.404l16.239-183.316a7.5 7.5 0 1 0-14.941-1.323L31.865 441.52a23.445 23.445 0 0 0 6.049 17.854 23.444 23.444 0 0 0 17.252 7.595h85.451c-2.179 15.469 4.99 31.448 19.328 39.727 5.877 3.392 12.632 5.304 19.667 5.304 13.909 0 27.038-7.277 34.238-19.748l14.597-25.283h58.305v23.059c0 12.109 9.851 21.96 21.96 21.96h149.552c12.109 0 21.96-9.851 21.96-21.96v-95.513a7.5 7.5 0 0 0-15 0v95.513a6.968 6.968 0 0 1-6.961 6.96H308.712c-3.838 0-6.961-3.122-6.961-6.96V340.049a6.969 6.969 0 0 1 6.961-6.961h149.552a6.969 6.969 0 0 1 6.961 6.961v19.467a7.5 7.5 0 0 0 7.5 7.5zM206.816 15c43.53 0 79.04 34.888 80.098 78.168H126.718C127.776 49.888 163.286 15 206.816 15zm-13.74 385.387a24.3 24.3 0 0 1 14.853-11.397c6.297-1.686 12.89-.831 18.562 2.444 5.659 3.267 9.706 8.542 11.397 14.853s.823 12.903-2.443 18.562l-13.543 23.457-42.369-24.462zm-34.585 59.904 13.543-23.457 42.369 24.461-13.543 23.457c-6.759 11.706-21.707 15.714-33.415 8.953-11.826-6.826-15.586-21.927-8.954-33.414zM335.59 281.457h95.797v36.631H335.59z" fill="#000000" opacity="1" data-original="#000000" class=""></path><path d="M334.855 415.039c0 26.816 21.817 48.633 48.633 48.633s48.633-21.817 48.633-48.633-21.817-48.633-48.633-48.633-48.633 21.817-48.633 48.633zm82.267 0c0 18.545-15.088 33.633-33.633 33.633-18.546 0-33.634-15.088-33.634-33.633s15.088-33.634 33.634-33.634c18.545 0 33.633 15.088 33.633 33.634z" fill="#000000" opacity="1" data-original="#000000" class=""></path></g></svg>