<svg xmlns="http://www.w3.org/2000/svg" version="1.1" xmlns:xlink="http://www.w3.org/1999/xlink" width="512" height="512" x="0" y="0" viewBox="0 0 58 58" style="enable-background:new 0 0 512 512" xml:space="preserve" class=""><g><g fill="none" fill-rule="nonzero" transform="translate(0 -1)"><path fill="#f9c76f" d="M19.21 25H13a1 1 0 0 0-1 1v2a1 1 0 0 0 1 1h32a1 1 0 0 0 1-1v-2a1 1 0 0 0-1-1z" opacity="1" data-original="#f29c1f" class=""></path><path fill="#fdb536" d="M14 29h30v30H14z" opacity="1" data-original="#f0c419" class=""></path><path fill="#f9c76f" d="M2 41h12v18H3a1 1 0 0 1-1-1z" opacity="1" data-original="#f29c1f" class=""></path><path fill="#e78c6f" d="M26 49h6a2 2 0 0 1 2 2v8H24v-8a2 2 0 0 1 2-2z" opacity="1" data-original="#e57e25" class=""></path><g fill="#2fa8cc"><rect width="4" height="4" x="27" y="41" rx="1" fill="#c6e0df" opacity="1" data-original="#2fa8cc" class=""></rect><rect width="4" height="4" x="27" y="33" rx="1" fill="#c6e0df" opacity="1" data-original="#2fa8cc" class=""></rect><rect width="4" height="4" x="19" y="41" rx="1" fill="#c6e0df" opacity="1" data-original="#2fa8cc" class=""></rect><rect width="4" height="4" x="6" y="45" rx="1" fill="#c6e0df" opacity="1" data-original="#2fa8cc" class=""></rect><rect width="4" height="4" x="19" y="33" rx="1" fill="#c6e0df" opacity="1" data-original="#2fa8cc" class=""></rect><rect width="4" height="4" x="35" y="41" rx="1" fill="#c6e0df" opacity="1" data-original="#2fa8cc" class=""></rect><rect width="4" height="4" x="35" y="33" rx="1" fill="#c6e0df" opacity="1" data-original="#2fa8cc" class=""></rect></g><path fill="#e78c6f" d="M1 37h13v4H1a1 1 0 0 1-1-1v-2a1 1 0 0 1 1-1z" opacity="1" data-original="#e57e25" class=""></path><path fill="#e26b44" d="M7 53h2a1 1 0 0 1 1 1v5H6v-5a1 1 0 0 1 1-1z" opacity="1" data-original="#d25627" class=""></path><path fill="#f9c76f" d="M55 59H44V41h12v17a1 1 0 0 1-1 1z" opacity="1" data-original="#f29c1f" class=""></path><rect width="4" height="4" x="48" y="45" fill="#c6e0df" rx="1" transform="rotate(180 50 47)" opacity="1" data-original="#2fa8cc" class=""></rect><path fill="#e78c6f" d="M57 41H44v-4h13a1 1 0 0 1 1 1v2a1 1 0 0 1-1 1z" opacity="1" data-original="#e57e25" class=""></path><path fill="#e26b44" d="M52 59h-4v-5a1 1 0 0 1 1-1h2a1 1 0 0 1 1 1z" opacity="1" data-original="#d25627" class=""></path><path fill="#e26b44" d="M43 15a13.9 13.9 0 0 1-3.43 9.16c-.424.514-.896.986-1.41 1.41-5.543 4.821-13.872 4.532-19.067-.663S13.61 11.383 18.43 5.84c.424-.514.896-.986 1.41-1.41A13.985 13.985 0 0 1 43 15z" opacity="1" data-original="#e64c3c" class=""></path><path fill="#91c9c6" d="m30.791 10.243 3.53-3.53 2.829 2.83-3.53 3.53z" opacity="1" data-original="#2980ba" class=""></path><path fill="#91c9c6" d="M21.6 23.264a1 1 0 0 1-.707-1.707l3.331-3.331a1 1 0 0 1 1.416 1.414l-3.331 3.331a1 1 0 0 1-.709.293z" opacity="1" data-original="#95a5a5" class=""></path><path fill="#c6e0df" d="m35.037 14.485-6.364 6.364a3 3 0 0 1-4.243 0l-1.414-1.414a3 3 0 0 1 0-4.243l6.364-6.364z" opacity="1" data-original="#b0d3f0" class=""></path><path fill="#91c9c6" d="M36.451 16.9a.993.993 0 0 1-.707-.293l-8.486-8.486a1 1 0 1 1 1.414-1.414l8.486 8.485a1 1 0 0 1-.707 1.707z" opacity="1" data-original="#3b97d3" class=""></path><path fill="#ecf0f1" d="M39.57 24.16c-.424.514-.896.986-1.41 1.41L18.43 5.84c.424-.514.896-.986 1.41-1.41z" opacity="1" data-original="#ecf0f1" class=""></path><path fill="#91c9c6" d="M37.865 11.242a1 1 0 0 1-.707-.293l-4.242-4.242a1 1 0 0 1 1.414-1.414l4.242 4.242a1 1 0 0 1-.707 1.707z" opacity="1" data-original="#3b97d3" class=""></path></g></g></svg>