<svg xmlns="http://www.w3.org/2000/svg" version="1.1" xmlns:xlink="http://www.w3.org/1999/xlink" width="512" height="512" x="0" y="0" viewBox="0 0 512.005 512" style="enable-background:new 0 0 512 512" xml:space="preserve" class=""><g><path d="M504.637 455.18c-2.996-1.512-7.586-1.715-11.676-1.715-1.004 0-1.992.012-2.934.023h-.101c-.973.016-1.922.028-2.836.028-1.106 0-1.98-.02-2.75-.063a4332.025 4332.025 0 0 0-50.004-2.64 4670.408 4670.408 0 0 0-99.012-3.653 4697.618 4697.618 0 0 0-198.18-.98 4677.463 4677.463 0 0 0-111.828 3.172c-6.359.246-11.988.691-16.437 3.668-2.617 1.761-4.488 4.832-4.774 7.847-.113 1.309.07 2.516.543 3.594l.79 1.777 488.015 1.91c4.727 0 8.89-.191 11.961-2.515 1.762-1.344 2.695-3.445 2.496-5.64-.21-2.11-1.402-3.86-3.273-4.813ZM423.918 309.176c1.05 1.18 2.598 1.34 3.973 1.34l31.812-.598c1.156-.035 2.192-.121 3.11-.848 1.128-.918 1.351-2.308 1.48-3.668.113-1.273.156-2.609-.648-3.613-.97-1.293-2.57-1.469-4.141-1.469-2.39-.015-4.781-.023-7.168-.023-2.383 0-4.766.008-7.149.012h-.234c-2.219.007-4.437.015-6.664.015l-10.215-.015c-1.578 0-3.183.164-4.258 1.39-.918 1.074-.968 2.496-.941 3.68 0 1.367.129 2.777 1.043 3.797ZM423.918 396.79c1.055 1.179 2.605 1.339 4.129 1.339l31.691-.602c.883-.023 2.09-.054 3.059-.832 1.14-.906 1.363-2.312 1.496-3.68.117-1.273.16-2.605-.648-3.617-1-1.336-2.66-1.457-4.141-1.468-2.379-.016-4.758-.02-7.14-.02-2.376 0-4.75.004-7.13.008l-.457.004c-3.125.008-6.25.02-9.363.02l-7.34-.024c-1.558 0-3.144.164-4.258 1.39-.921 1.075-.968 2.497-.941 3.68 0 1.371.129 2.778 1.043 3.801ZM371.762 309.18c1.047 1.175 2.59 1.336 3.968 1.336l31.797-.598c1.137-.031 2.153-.113 3.04-.777l.085-.07c1.149-.93 1.36-2.391 1.47-3.669.12-1.332.16-2.62-.638-3.613-1.015-1.355-2.687-1.469-4.152-1.469-2.387-.015-4.77-.02-7.156-.02-2.383 0-4.766.005-7.153.009h-.218c-2.223.007-4.453.015-6.68.015l-10.21-.015c-1.49 0-3.173.109-4.255 1.386-.922 1.07-.973 2.496-.945 3.684 0 1.281.082 2.73 1.047 3.8ZM371.754 396.793c1.187 1.336 3.098 1.336 4.125 1.336l31.687-.602c1.106-.027 2.172-.113 3.094-.851 1.14-.93 1.356-2.387 1.461-3.66.125-1.332.164-2.618-.637-3.614-1-1.336-2.668-1.46-4.148-1.472-2.379-.016-4.754-.02-7.133-.02-2.371 0-4.746.004-7.125.012h-.46c-3.122.008-6.247.02-9.364.02l-7.336-.02c-1.582 0-3.191.164-4.262 1.387-.918 1.07-.965 2.496-.941 3.683 0 1.281.082 2.738 1.039 3.801ZM218.309 444.52l2.968.015 1.118-73.687c.039-3.086.363-5.27 1.84-6.602 1.546-1.398 4.077-1.41 5.933-1.418l27.637-.21.027-.009 30.617-.23c2.77 0 4.871.285 6.153 1.676.855.925 1.273 2.336 1.304 4.39v.707l-.004.078c0 .313-.015.606-.03.88l-3.927 75.058 3.22.066c1.456.028 2.925.055 4.378.075l2.957.043 2.09-73.028h.008l.039-1.64.027-.903.008-.394v-.059c.117-4.648 0-9.469-2.828-12.883-3.48-4.195-9.785-4.68-15.426-4.804l-54.805-1.192c-.754-.015-1.515-.027-2.281-.027-5.547 0-11.727.566-15.477 4.758-3.406 3.812-3.707 9.32-3.73 15.105l-.398 74.215h3.02c1.855 0 3.706.008 5.562.02ZM102.973 309.18c1.043 1.175 2.59 1.336 3.965 1.336l31.796-.598c1.141-.031 2.157-.113 3.04-.777l.097-.075c1.14-.93 1.352-2.386 1.461-3.664.121-1.332.16-2.62-.637-3.613-1.015-1.355-2.687-1.469-4.152-1.469-2.387-.015-4.77-.02-7.156-.02-2.383 0-4.766.005-7.153.009h-.218c-2.223.007-4.454.015-6.68.015l-10.211-.015c-1.492 0-3.172.109-4.254 1.386-.922 1.07-.973 2.496-.945 3.684 0 1.281.082 2.73 1.047 3.8ZM102.973 396.793c1.195 1.336 3.093 1.336 4.12 1.336l31.68-.602c1.106-.03 2.172-.113 3.098-.855 1.14-.93 1.352-2.387 1.461-3.656.121-1.332.16-2.618-.637-3.618-1.004-1.336-2.668-1.457-4.152-1.468-2.375-.016-4.754-.02-7.133-.02-2.375 0-4.75.004-7.125.008l-.457.004c-3.125.008-6.25.02-9.363.02l-7.34-.024c-1.578 0-3.188.168-4.258 1.39-.918 1.07-.969 2.493-.941 3.68 0 1.282.082 2.735 1.047 3.805ZM50.813 309.184c1.042 1.171 2.59 1.332 3.964 1.332l31.801-.598c1.137-.031 2.152-.113 3.035-.777l.094-.07c1.145-.93 1.356-2.391 1.465-3.669.117-1.289.16-2.53-.621-3.59l-.074-.101-.082-.09c-.938-1.078-2.29-1.3-4.012-1.3-2.387-.016-4.774-.02-7.16-.02-2.38 0-4.762.004-7.145.012h-.25c-2.223.007-4.437.011-6.652.011l-10.219-.015c-1.598 0-3.219.168-4.25 1.39-.879 1.028-.953 2.301-.953 3.68l.004.11c.023 1.304.125 2.663 1.054 3.695ZM50.816 396.797c1.192 1.332 3.094 1.332 4.118 1.332l31.68-.602c1.105-.03 2.171-.113 3.097-.851 1.113-.906 1.328-2.242 1.46-3.664.114-1.235.161-2.528-.616-3.586l-.075-.102-.085-.097c-1.024-1.176-2.606-1.286-4.012-1.297-2.375-.016-4.754-.02-7.133-.02-2.375 0-4.75.004-7.125.008l-.453.004c-3.125.008-6.25.02-9.367.02l-7.348-.024c-1.578 0-3.18.168-4.25 1.39-.879 1.028-.953 2.305-.953 3.68l.004.11c.023 1.308.129 2.668 1.058 3.699Zm0 0" style="stroke:none;fill-rule:nonzero;fill-opacity:1;" fill="#e26b44" data-original="#935252" class="" opacity="1"></path><path d="m329.629 46.285-1.692-2.742-29.125 20.96 6.02 1.677c.656.183 1.324.355 1.988.504 3.157.718 6.578 1.082 10.168 1.082 7.649 0 15.172-1.598 21.524-3.164l5.066-1.25-3.625-3.75c-3.86-3.989-7.332-8.473-10.324-13.317ZM319.453 21.766c-3.531-.977-7.324-2.305-11.281-3.953l-1.363-1.364-48.805 33.664.05 7.055 3.9-1.266c2.284-.742 4.812-1.12 7.507-1.12 2.766 0 5.734.394 8.832 1.175l1.348.34 45.867-32.856ZM286.45 8.93a54.464 54.464 0 0 0-3.208-.836c-2.863-.645-5.691-.969-8.41-.969-6.309 0-11.828 1.734-15.96 5.016l-1.15.91.157 19.898 34.96-22.168Zm0 0" style="stroke:none;fill-rule:nonzero;fill-opacity:1;" fill="#5bd0fc" data-original="#5bd0fc"></path><path d="M425.355 360.16c0 1.633.032 3.27.07 4.88l.5 24.843 9.49.015 7.968-.007v.007l3.191-.007c2.344-.008 4.684-.012 7.024-.012 1.742 0 3.484.004 5.222.012l2.817.015.191-2.812c.668-9.809 1.172-18.653.621-27.559l-.054-.902h.05l-.129-1.227-.043-.726h-.027l-.137-1.305c-.418-4.082-1.054-7.824-1.953-11.438-.941-3.8-2.492-8.55-6.152-11.574-2.098-1.726-4.8-2.726-7.82-2.898l-1.23-.07-.005-.372-1.207.305-.746-.043v.227l-1.75.437a16.118 16.118 0 0 0-4.914 2.125c-4.687 3.043-8.152 8.414-9.758 15.13-.61 2.597-.98 5.468-1.137 8.776l-.054 1.223h-.028v.57l-.066 1.391h.066ZM425.355 272.55c0 1.634.032 3.27.07 4.868l.5 24.848s11.02.02 11.794.02l7.625-.005v-.008l1.027-.003c2.39-.004 4.781-.012 7.168-.012 1.762 0 3.52.004 5.281.012l2.817.015.191-2.812c.668-9.801 1.172-18.641.621-27.547l-.058-.903h.05l-.125-1.226-.046-.727h-.028l-.133-1.304c-.418-4.082-1.058-7.825-1.953-11.438-.941-3.8-2.492-8.55-6.156-11.574-2.094-1.723-4.797-2.727-7.816-2.899l-1.23-.07-.005-.37-1.21.3-.747-.04v.227l-1.746.438a16.182 16.182 0 0 0-4.918 2.125c-4.687 3.047-8.152 8.41-9.758 15.12-.61 2.606-.98 5.481-1.136 8.786l-.055 1.223h-.027v.57l-.067 1.395h.067v.992ZM401.844 244.754c-2.098-1.723-4.801-2.727-7.817-2.899l-1.234-.07-.004-.41-1.3.336-.653-.035v.203l-1.77.457c-1.793.46-3.441 1.18-4.894 2.129-4.703 3.05-8.168 8.418-9.754 15.11-.617 2.585-.98 5.382-1.14 8.796l-.055 1.223h-.028v.57l-.066 1.39h.066v.997c0 1.625.028 3.246.059 4.87l.512 24.845s11.011.02 11.785.02l7.633-.005v-.008h1.027c2.39-.007 4.777-.015 7.164-.015 1.762 0 3.523.004 5.285.015l2.817.012.191-2.808c.668-9.805 1.172-18.649.621-27.551l-.055-.903h.047l-.125-1.222-.043-.73h-.031l-.133-1.305c-.418-4.082-1.058-7.825-1.953-11.446-.957-3.808-2.516-8.566-6.152-11.566ZM384.172 332.074c-4.7 3.051-8.164 8.422-9.754 15.117-.617 2.59-.98 5.383-1.14 8.79l-.055 1.218h-.028v.57l-.066 1.395.066-.004v1c0 1.613.028 3.223.059 4.88l.512 24.843 9.48.015 7.98-.007v.007l3.2-.007c2.336-.008 4.672-.012 7.008-.012 1.742 0 3.484.004 5.226.012l2.817.015.191-2.812c.668-9.809 1.172-18.656.621-27.559l-.055-.902h.047l-.125-1.227-.043-.726h-.031l-.133-1.305c-.418-4.082-1.058-7.824-1.953-11.445-.957-3.809-2.52-8.563-6.156-11.567-2.094-1.722-4.797-2.726-7.817-2.898l-1.23-.07-.004-.372-1.207.305-.746-.043v.227l-1.75.437a16.118 16.118 0 0 0-4.914 2.125ZM330.512 35.914l13.558-11.879-8.132.106h-.57c-3.384 0-7.052-.395-10.903-1.18l-1.281-.262-45.606 32.66 5.235 1.985c.12.047.242.09.359.129.066.023.133.047.277.101 2.914 1.074 5.79 2.367 8.57 3.614 2.633 1.18 5.215 2.324 7.825 3.324l1.511.578 27.415-19.738-.852-2.168c-.453-1.153-.582-2.172-.406-3.098.363-1.863 1.949-3.25 3-4.172ZM291.598 10.664l-1.403-.531-30.515 19.351-.407.118-1.406 1.476.16 21.406 50.164-34.597-6.632-2.985c-3.672-1.652-6.739-3.015-9.961-4.238ZM221.672 220.438c-7.567 14.867-4.79 34.449 6.605 46.558 7.532 8.012 18.457 12.606 29.973 12.606 5.621 0 11.184-1.164 16.086-3.368 15.324-6.886 25.184-23.98 23.441-40.636-1.386-13.352-9.125-23.836-24.355-32.989-5.125-3.086-10.582-4.648-16.215-4.648-6.074 0-12.406 1.82-18.824 5.406-7.227 4.031-13.164 10.094-16.711 17.07ZM141.5 271.922l-.059-.899.051-.003-.125-1.223-.043-.727h-.031l-.133-1.308c-.418-4.082-1.058-7.82-1.953-11.442-.957-3.812-2.52-8.566-6.152-11.57-2.098-1.723-4.801-2.727-7.817-2.898l-1.234-.067-.004-.41-1.297.336-.656-.04v.208l-1.77.453c-1.793.461-3.441 1.18-4.894 2.129-4.703 3.055-8.168 8.422-9.754 15.113-.621 2.598-.98 5.39-1.14 8.793l-.055 1.223h-.028v.57l-.066 1.395h.066v.992c0 1.625.028 3.25.059 4.871l.5 24.848 11.797.015 7.633-.004v-.004l1.027-.003c2.39-.008 4.777-.012 7.164-.012 1.762 0 3.523.004 5.285.012l2.816.015.192-2.812c.668-9.801 1.172-18.637.621-27.551ZM125.633 389.887c2.34-.004 4.672-.008 7.008-.008 1.742 0 3.484 0 5.23.012l2.816.011.192-2.808c.668-9.809 1.172-18.649.621-27.559l-.059-.902h.051l-.125-1.227-.043-.726h-.031l-.133-1.305c-.418-4.082-1.058-7.824-1.953-11.445-.957-3.809-2.52-8.563-6.156-11.567-2.094-1.722-4.797-2.726-7.817-2.898l-1.23-.07-.004-.372-1.207.305-.746-.043v.227l-1.75.437a16.118 16.118 0 0 0-4.914 2.125c-4.703 3.051-8.164 8.422-9.754 15.121-.621 2.586-.98 5.38-1.14 8.785l-.06 1.22h-.027v.57l-.062 1.394h.062v.996c0 1.613.032 3.227.063 4.88l.5 24.843 9.492.015 7.977-.007v.007ZM52.246 360.16c0 1.63.027 3.258.059 4.88l.5 24.843 9.492.015 7.976-.007v.007l3.184-.007c2.336-.008 4.68-.012 7.023-.012 1.743 0 3.485.004 5.23.012l2.817.015.192-2.812c.664-9.809 1.172-18.656.61-27.563l-.056-.898h.059l-.156-1.528-.028-.425h-.015L89 355.375c-.422-4.102-1.066-7.848-1.965-11.438-.941-3.796-2.488-8.546-6.144-11.574-2.098-1.726-4.801-2.726-7.829-2.898l-1.222-.067v-.367l-1.2.297-.765-.043v.23l-1.734.434a16.303 16.303 0 0 0-4.934 2.125c-4.691 3.055-8.152 8.426-9.742 15.121-.617 2.586-.977 5.38-1.137 8.785l-.058 1.22h-.024v.554l-.066 1.41.066-.004ZM52.246 272.55c0 1.63.027 3.259.059 4.868l.5 24.848s11.02.02 11.793.02l7.636-.005v-.008l1.028-.003c2.383-.004 4.773-.012 7.16-.012 1.762 0 3.523.004 5.289.012l2.816.015.192-2.812c.664-9.805 1.172-18.645.61-27.551l-.056-.899h.059l-.156-1.539-.028-.414h-.015L89 267.766c-.422-4.106-1.063-7.848-1.96-11.438-.942-3.797-2.493-8.547-6.15-11.574-2.093-1.723-4.8-2.727-7.828-2.899l-1.218-.066-.004-.406-1.29.332-.675-.04v.212l-1.754.449a16.43 16.43 0 0 0-4.914 2.133c-4.695 3.054-8.152 8.422-9.742 15.105-.617 2.586-.977 5.383-1.137 8.797l-.058 1.223h-.024v.554l-.066 1.41.066-.003Zm0 0" style="stroke:none;fill-rule:nonzero;fill-opacity:1;" fill="#ffffff" data-original="#ffffff" class=""></path><path d="m291.016 445.16 2.894.047 3.902-74.746c.141-2.79.122-5.688-1.769-7.734-1.871-2.032-4.7-2.309-7.477-2.309l-30.191.23v-.003l-28.215.222c-2.605.016-5.308.172-7.242 1.922-2.406 2.168-2.453 5.844-2.48 8.035l-1.118 73.7 3.04.003c11.995.024 22.788.078 32.995.172l3.032.024v-.008l1.008.012c11.105.117 21.445.257 31.62.433Zm0 0" style="stroke:none;fill-rule:nonzero;fill-opacity:1;" fill="#e78c64" data-original="#af7979" class="" opacity="1"></path><path d="M434.395 449.734c14.132.672 28.636 1.434 43.101 2.262l3.168.18V449c0-.11-.004-.219-.016-.328l4.282-233.555-117.235.457-.882.957c-.34.367-.602.617-.887.84-1.496 1.203-3.43 1.836-5.594 1.836-.55 0-1.113-.043-1.672-.125l-3.398-.512-3.149 227.996 2.95.09c26.519.813 53.21 1.848 79.332 3.078Zm-24.215-56.898c-.07.734-.172 1.844-.782 2.332-.46.371-1.324.39-1.96.402l-31.762.602c-1.278 0-2.035-.211-2.457-.684-.528-.59-.54-1.68-.547-2.5-.016-.957.008-1.86.496-2.422.098-.113.258-.265.625-.414l1.91-.777-.492-24.375c-.113-5.746-.234-11.688 1.11-17.355 1.472-6.196 4.636-11.141 8.91-13.918a14.587 14.587 0 0 1 7.882-2.34c2.875 0 5.532.886 7.48 2.5 3.22 2.656 4.63 7.023 5.497 10.527 3.543 14.274 2.512 29.469 1.601 42.875l-.14 2.07 1.887.864c.269.12.386.238.457.324.437.547.343 1.586.285 2.289Zm15.148-89.879c.098-.113.258-.262.637-.418l1.91-.777-.492-24.438c-.117-5.734-.235-11.664 1.101-17.289 1.48-6.207 4.649-11.156 8.914-13.93a14.62 14.62 0 0 1 7.875-2.335c2.88 0 5.54.886 7.489 2.5 3.215 2.656 4.625 7.02 5.492 10.523 3.543 14.238 2.508 29.453 1.598 42.883l-.141 2.07 1.89.863c.27.121.383.239.462.332.43.536.335 1.579.277 2.282-.07.738-.172 1.851-.762 2.324-.473.379-1.344.398-1.98.41l-31.774.602c-1.27 0-2.023-.211-2.441-.68-.531-.594-.54-1.68-.547-2.484-.008-.782-.02-1.852.492-2.438Zm-.015 87.629c.152-.18.367-.32.652-.438l1.91-.777-.492-24.437c-.117-5.73-.235-11.657 1.101-17.286 1.48-6.203 4.649-11.148 8.918-13.925a14.627 14.627 0 0 1 7.88-2.34c2.874 0 5.534.887 7.48 2.496 3.215 2.66 4.625 7.027 5.492 10.535 3.543 14.238 2.508 29.453 1.598 42.871l-.141 2.074 1.887.86c.273.125.386.242.46.332.43.539.34 1.582.278 2.285-.066.738-.168 1.848-.758 2.324-.473.38-1.344.399-1.98.41l-31.407.594c-.07.004-.312.008-.355.008-1.277 0-2.035-.211-2.457-.684-.527-.59-.54-1.68-.543-2.484-.008-.824-.02-1.848.476-2.418Zm-52.145-87.629c.098-.117.258-.27.629-.418l1.91-.777-.492-24.375c-.117-5.746-.238-11.692 1.105-17.352 1.485-6.215 4.649-11.16 8.907-13.93a14.646 14.646 0 0 1 7.882-2.335c2.88 0 5.536.886 7.485 2.503 3.219 2.653 4.629 7.016 5.5 10.516 3.539 14.274 2.508 29.473 1.597 42.887l-.14 2.07 1.89.863c.27.121.387.239.457.332.43.536.34 1.579.278 2.282-.067.734-.168 1.847-.781 2.332-.457.37-1.325.39-1.957.402l-31.774.602c-1.27 0-2.023-.211-2.445-.68-.528-.594-.54-1.684-.543-2.504-.016-.723-.035-1.816.492-2.418ZM41.676 447.668a4634.094 4634.094 0 0 1 95.465-2.55c3.285-.06 6.574-.102 9.863-.141l7.996-.11 1.066-228.77-4.968 4.2c-1.88 1.59-3.578 2.594-5.336 3.164-.938.3-1.965.457-2.977.457-2.543 0-5.742-1.023-7.105-3.895a6.5 6.5 0 0 1-.59-2.105l-.281-2.695-97.762.191 1.539 232.367Zm99.71-54.832c-.066.734-.167 1.848-.777 2.332-.46.371-1.324.387-1.96.402l-31.762.598c-1.278 0-2.035-.207-2.457-.68-.528-.59-.54-1.68-.547-2.5-.016-.957.008-1.86.476-2.402a1.65 1.65 0 0 1 .645-.438l1.914-.777-.492-24.371c-.117-5.742-.239-11.68 1.105-17.355 1.473-6.196 4.637-11.141 8.906-13.918a14.637 14.637 0 0 1 7.891-2.344c2.875 0 5.531.89 7.477 2.504 3.203 2.64 4.62 7.015 5.5 10.527 3.539 14.274 2.507 29.469 1.597 42.875l-.14 2.07 1.886.86c.27.125.391.242.461.336.43.535.34 1.574.278 2.28Zm-37.007-89.879c.098-.117.258-.27.625-.418l1.914-.777-.492-24.375c-.117-5.746-.239-11.688 1.105-17.356 1.477-6.203 4.637-11.148 8.906-13.926a14.666 14.666 0 0 1 7.883-2.332c2.88 0 5.535.887 7.485 2.5 3.199 2.641 4.62 7.012 5.496 10.52 3.543 14.27 2.512 29.473 1.601 42.883l-.14 2.074 1.886.86c.27.12.387.238.461.331.43.54.34 1.579.278 2.286-.067.734-.168 1.843-.782 2.332-.457.37-1.324.39-1.957.402l-31.773.598c-1.27 0-2.023-.207-2.445-.68-.528-.59-.54-1.68-.543-2.504-.016-.723-.035-1.816.492-2.418Zm-52.192.02c.165-.188.36-.317.657-.438l1.914-.777-.492-24.375c-.118-5.75-.239-11.692 1.109-17.356 1.473-6.203 4.637-11.148 8.902-13.926a14.65 14.65 0 0 1 7.875-2.332c2.88 0 5.54.887 7.493 2.5 3.199 2.641 4.62 7.012 5.5 10.52 3.523 14.207 2.5 29.441 1.597 42.883l-.137 2.058 1.868.868c.28.128.394.246.468.34.446.554.34 1.628.274 2.296-.067.73-.168 1.84-.758 2.313-.473.375-1.336.394-1.969.41l-31.773.598c-1.27 0-2.024-.211-2.445-.68-.52-.586-.54-1.672-.555-2.488-.008-.778-.016-1.848.472-2.414Zm-.015 87.628c.176-.195.387-.34.672-.457l1.914-.777L54.266 365c-.118-5.75-.239-11.695 1.109-17.36 1.469-6.195 4.633-11.136 8.906-13.917a14.63 14.63 0 0 1 7.883-2.34c2.875 0 5.531.887 7.48 2.5 3.204 2.644 4.622 7.02 5.5 10.531 3.528 14.211 2.5 29.438 1.598 42.875l-.137 2.055 1.868.867c.285.133.394.246.468.344.446.554.34 1.625.278 2.297-.07.734-.172 1.843-.762 2.312-.469.375-1.332.395-1.969.406 0 0-31.718.602-31.773.602-1.27 0-2.024-.211-2.445-.68-.52-.586-.54-1.672-.555-2.488-.008-.824-.016-1.848.457-2.399Zm0 0" style="stroke:none;fill-rule:nonzero;fill-opacity:1;" fill="#ffa300" data-original="#f7b36f" class="" opacity="1"></path><path d="M452.074 125c-2.965-4.59-6.324-9.79-11.562-12.336-4.219-2.062-9.23-2.11-13.688-2.156-19.867-.203-38.824-.227-54.746-.227-6.515 0-12.976.004-19.375.008-6.148.008-12.355.012-18.61.012-19.519 0-34.577-.051-48.823-.16l-7.649-.063 5.567 5.246c.68.64 1.359 1.285 2.035 1.93l1.007.96c25.985 24.641 52.852 50.118 76.274 78.079 2.836 3.394 5.09 6.281 6.176 9.926.453 1.535.601 3.289.422 4.945l-.36 3.34 115.215-.453c.406 0 .805 0 1.188-.012l.171-.004.153-.023.097.015.27-.007c4.434-.133 9.871-.79 12.57-4.711 3.703-5.387-.199-12.746-3.46-17.813Zm0 0" style="stroke:none;fill-rule:nonzero;fill-opacity:1;" fill="#e26b44" data-original="#ed6d66" class="" opacity="1"></path><path d="M361.684 196.984c-23.34-27.867-50.168-53.32-76.184-78.004l-.238-.222c-4.117-3.903-8.227-7.797-12.325-11.707-4.308-4.114-8.28-7.574-13.277-8.29a12.058 12.058 0 0 0-1.758-.128c-6.968 0-12.539 5.847-17.52 11.07-.925.965-1.823 1.902-2.71 2.777a6391.39 6391.39 0 0 0-22.598 22.56l-3.625 3.624c-6.308 6.309-12.828 12.836-19.242 19.184l-50.781 50.28c-4.672 4.626-6.235 8.368-4.781 11.435.96 2.03 3.3 3.292 6.109 3.292.926 0 1.851-.144 2.652-.41 3.399-1.093 6.074-3.82 8.453-6.246l90.72-92.558c2.862-2.922 6.112-6.235 10.464-7.368a12.76 12.76 0 0 1 3.242-.421c7.672 0 14.602 7.05 19.145 12.351l69.574 81.227c1.668 1.953 3.746 4.382 6.172 6.14l.726.528.899.039a.524.524 0 0 1 .39.218l.543.77.891.32c1.246.446 2.555.684 3.777.684 1.891 0 3.575-.555 4.868-1.594 2.972-2.379 3.32-6.855 2.382-10.004-1.023-3.472-3.308-6.379-5.968-9.547Zm0 0" style="stroke:none;fill-rule:nonzero;fill-opacity:1;" fill="#e26b44" data-original="#ed6d66" class="" opacity="1"></path><path d="M276.535 194.86c-6.133-3.696-12.68-5.57-19.46-5.57-7.321 0-14.985 2.202-22.782 6.55-8.758 4.887-15.957 12.242-20.273 20.707-9.172 18.031-5.805 41.781 8.007 56.465 9.13 9.715 22.371 15.289 36.332 15.289 6.82 0 13.563-1.414 19.504-4.086 18.57-8.34 30.528-29.055 28.426-49.246-1.676-16.168-11.133-28.914-29.754-40.11Zm-3.012 79.585c-4.625 2.082-9.894 3.184-15.238 3.184-10.84 0-21.527-4.477-28.586-11.973-10.84-11.527-13.48-30.168-6.281-44.328 3.371-6.629 9.023-12.402 15.918-16.25 6.168-3.445 12.187-5.191 17.883-5.191 5.226 0 10.34 1.48 15.187 4.394 14.469 8.703 22.13 19.016 23.426 31.52 1.648 15.844-7.73 32.097-22.309 38.644ZM140.664 207.371l50.793-50.281c7.863-7.79 15.918-15.86 22.848-22.809 5.3-5.297 10.73-10.726 16.156-16.136l5.086-5.063-7.176-.062c-21.289-.18-42.309-.293-62.012-.391l-3.054-.016c-21.438-.113-43.606-.234-66.297-.433-.836-.008-1.688-.016-2.547-.016-5.34 0-10.95.3-15.805 2.488-7.094 3.188-11.89 9.852-16.578 16.977a1019.907 1019.907 0 0 0-41.922 69.617c-1.734 3.152-3.152 6.453-1.82 9.223 1.66 3.488 6.656 3.89 10.27 3.89h.074l106.933-.21.86-1.516c.957-1.684 2.367-3.453 4.191-5.262Zm0 0" style="stroke:none;fill-rule:nonzero;fill-opacity:1;" fill="#e26b44" data-original="#ed6d66" class="" opacity="1"></path><path d="M159.121 444.82c15.383-.18 31.047-.28 46.559-.3l2.98-.004.395-74.243c.02-4.53.047-11.37 4.007-15.804 4.032-4.508 10.497-5.117 16.29-5.117.77 0 1.527.011 2.277.027l54.824 1.2c6.14.132 12.45.64 16.215 5.187 3.363 4.058 3.191 9.875 3.07 14.129l-2.168 75.484 3.028.062c11.214.22 20.351.43 28.75.657 2.828.074 5.668.16 8.504.242l7.191.207 3.164-228.953-1.312-.91c-2.672-1.852-4.805-4.348-6.692-6.555l-69.59-81.23c-4.394-5.137-11.082-11.965-18.383-11.965-.988 0-1.968.125-2.902.37-3.77.973-6.633 3.665-9.984 7.087l-88.938 90.738.692 1.797c.035.094.039.148.039.168l-1.063 227.761Zm53.95-228.761c4.39-8.633 11.745-16.145 20.706-21.149 8.024-4.48 15.868-6.75 23.317-6.75 6.879 0 13.601 1.945 19.984 5.781 18.672 11.227 28.574 24.614 30.274 40.918 2.148 20.633-10.067 41.801-29.051 50.336-6.024 2.711-12.887 4.145-19.848 4.145-14.113 0-28.023-5.832-37.203-15.598-14.117-15-17.555-39.262-8.18-57.683Zm0 0" style="stroke:none;fill-rule:nonzero;fill-opacity:1;" fill="#fac870" data-original="#f9d889" class="" opacity="1"></path><path d="M511.96 459.648c-.32-3.5-2.374-6.527-5.495-8.101-4.535-2.29-10.91-2.203-16.535-2.125-1.938.027-3.77.05-5.266-.031.02-.145.05-.29.05-.442l4.24-231.031c4.401-.43 9.714-1.805 12.808-6.309 5.672-8.25-1.157-18.84-3.403-22.32l-42.847-66.457c-3.094-4.8-6.946-10.773-13.219-13.828-5.059-2.465-10.813-2.524-15.434-2.57-25.437-.25-50.21-.23-74.164-.211-23.949.02-48.71.035-74.125-.215h-.035c-.246 0-.484.027-.715.074-.691-.66-1.39-1.32-2.082-1.98-3.511-3.352-8.254-7.868-14.398-9.172l-.258-34.29c6.672-3.3 15.031-1.449 20.945.743 2.786 1.031 5.602 2.297 8.328 3.52 4.938 2.21 10.04 4.495 15.56 5.753 3.702.844 7.42 1.196 11.108 1.196 9.977 0 19.782-2.563 28.72-4.899a3.535 3.535 0 0 0 1.44-6.074 73.824 73.824 0 0 1-14.699-17.684c-.894-1.496-1.027-2.101-.98-2.343.094-.48 1.21-1.457 1.687-1.88L349.695 24.5a3.537 3.537 0 0 0-3.386-6.031c-10.125 3.16-22.239 1.656-37.024-4.602a263.748 263.748 0 0 1-6.062-2.676c-6.063-2.73-12.336-5.558-19.09-7.074-8.711-1.953-16.965-1.172-23.461 2.086l-.02-2.691a3.533 3.533 0 0 0-3.535-3.508h-.027a3.531 3.531 0 0 0-3.508 3.558l.688 91.407c-6.868 1.52-12.258 7.133-16.774 11.86a166.03 166.03 0 0 1-2.11 2.175c-23.632-.207-46.698-.328-69.007-.445-22.406-.114-45.574-.235-69.313-.446-6.34-.058-13.52-.12-20.086 2.828-8.074 3.625-13.265 10.793-18.3 18.45a1020.007 1020.007 0 0 0-42.094 69.898c-1.406 2.563-4.336 7.899-1.926 12.938 2.883 6.027 10.492 6.203 13.723 6.203h.305l4.308-.008 1.492 226.512c-3.11.12-6.234.222-9.34.347-5.398.219-12.796.516-18.535 4.36-3.648 2.445-6.164 6.597-6.558 10.832-.32 3.425.777 6.558 3.086 8.824a3.55 3.55 0 0 0 2.464 1.012l487.817 1.906h.863c3.95 0 9.442-.2 13.582-3.34 2.895-2.195 4.422-5.645 4.094-9.227Zm-256.581-95.98.008 78.035a4650.963 4650.963 0 0 0-33.016-.18l1.063-70.652c.03-2.312.175-4.664 1.496-5.855 1.148-1.036 3.132-1.133 5.242-1.149Zm4.047 78.066-.008-78.097 28.684-.223c2.261-.008 4.566.074 5.734 1.34 1.11 1.207 1.094 3.402.98 5.55l-3.753 71.852a4732.21 4732.21 0 0 0-31.637-.422Zm37.383-79.714c-2.29-2.485-5.707-2.66-8.739-2.645l-30.605.238c-.024 0-.043-.008-.07-.008-.028 0-.051.008-.082.008l-27.172.215c-2.203.016-5.536.043-7.918 2.188-2.524 2.28-2.786 5.734-2.828 8.793l-1.067 70.707c-1.86-.004-3.719-.016-5.578-.016l.375-71.207c.023-5.188.273-10.094 2.969-13.113 3.293-3.684 9.703-3.86 15.453-3.735l54.812 1.196c4.977.109 10.508.496 13.176 3.718 2.195 2.649 2.262 6.91 2.133 11.418l-2.082 72.536-4.484-.083 3.75-71.714c.117-2.223.308-5.942-2.043-8.496Zm8.168-8.172c-4.567-5.516-11.926-6.13-18.465-6.27l-54.813-1.2c-7.324-.163-15.582.169-20.879 6.095-4.699 5.265-4.738 12.8-4.765 17.785l-.375 71.258c-15.555.023-31.094.12-46.594.3l1.047-224.71a3.475 3.475 0 0 0-.235-1.258l87.586-89.36c3.02-3.078 5.567-5.496 8.59-6.285 6.703-1.742 13.633 5.238 18.262 10.64l69.586 81.239c2.05 2.395 4.336 5.04 7.265 7.063l-3.101 224.316c-4.223-.125-8.45-.258-12.656-.367a4657.2 4657.2 0 0 0-28.774-.653l2.078-72.46c.125-4.465.32-11.215-3.757-16.133Zm53.238-131.801c3.535.527 7.004-.262 9.594-2.332.445-.356.836-.742 1.207-1.14l112.863-.446-4.23 230.691c0 .059.015.114.015.176a4581.897 4581.897 0 0 0-43.133-2.254 4712.968 4712.968 0 0 0-79.383-3.078Zm-5.512-108.754c23.938-.02 48.688-.04 74.09.21 4.113.044 8.777.09 12.402 1.856 4.5 2.192 7.621 7.032 10.375 11.305l42.852 66.457c4.387 6.805 5.539 11.543 3.515 14.484-1.812 2.637-5.835 3.286-10.187 3.418-.07-.007-.137-.023-.203-.023-.024-.004-.047-.004-.067-.004-.14 0-.273.027-.41.043-.367.008-.738.012-1.11.012l-111.874.441c.234-2.12.02-4.258-.535-6.125-1.246-4.207-3.793-7.469-6.75-10.996-23.508-28.07-50.45-53.625-76.504-78.336-1.02-.969-2.035-1.933-3.05-2.902 23.085.191 45.612.176 67.456.16Zm-91.676-60.246-.007-1.367 45.433-31.336.082.035c4.219 1.785 8.25 3.207 12.121 4.285l-39.633 28.39c-6.703-1.699-12.796-1.699-17.996-.007Zm76.774 8.644c-9.828 2.418-20.399 4.332-30.313 2.075-.62-.145-1.238-.301-1.855-.473l21.441-15.438a80.834 80.834 0 0 0 10.727 13.836Zm-9.266-28.03c-1.277 1.116-3.414 2.991-3.965 5.847-.343 1.777.028 3.422.559 4.77L300.914 61.71c-2.531-.969-5.059-2.094-7.664-3.262-2.832-1.27-5.758-2.578-8.762-3.695-.207-.074-.406-.137-.61-.211l39.985-28.64c4.227.855 8.262 1.285 12.106 1.234Zm-26.433-15.227L260.98 46.797l-.109-14.527c.016-.012.035-.012.05-.024L290.54 13.47c3.238 1.226 6.461 2.672 9.785 4.168.582.265 1.184.531 1.778.797Zm-19.512-7.418c1.02.23 2.023.5 3.023.793l-24.777 15.707-.098-13.024c5.223-4.152 13.16-5.426 21.852-3.476ZM242.61 111.71c5.109-5.348 10.398-10.871 16.624-9.98 4.114.59 7.7 3.738 11.63 7.488 4.179 3.988 8.37 7.965 12.566 11.945 25.914 24.574 52.703 49.988 75.953 77.746 2.437 2.914 4.527 5.563 5.39 8.469.684 2.293.426 5.371-1.378 6.816-1.532 1.223-3.864 1.102-5.766.426a3.509 3.509 0 0 0-2.7-1.48c-2.07-1.504-3.882-3.602-5.64-5.657l-69.586-81.234c-5.867-6.848-14.883-15.629-25.414-12.883-5.156 1.344-8.871 5.133-11.855 8.176l-90.723 92.559c-2.121 2.164-4.527 4.617-7.223 5.492-1.843.601-4.43.168-5.133-1.313-1.085-2.304 2.149-6.011 4.172-8.02l50.786-50.277c7.652-7.578 15.394-15.328 22.878-22.824 7.395-7.406 15.04-15.062 22.594-22.543.922-.914 1.86-1.898 2.824-2.906ZM28.68 211.359h-.075c-4.324 0-6.867-.734-7.562-2.183-.746-1.559.465-4.153 1.746-6.488a1013.342 1013.342 0 0 1 41.797-69.415c4.441-6.746 8.957-13.039 15.297-15.886 5.156-2.313 11.515-2.258 17.125-2.207 23.75.21 46.926.332 69.34.449 20.097.101 40.812.21 62 .383a7885.807 7885.807 0 0 0-16.157 16.148c-7.48 7.488-15.21 15.235-22.847 22.797l-50.785 50.281c-2.055 2.032-3.614 4.004-4.696 5.914Zm11.39 7.047 92.04-.18c.109 1.051.386 2.079.859 3.07 1.812 3.84 5.87 5.622 9.82 5.622a12.6 12.6 0 0 0 3.887-.602c2.465-.8 4.547-2.199 6.36-3.73l-1.024 219.324c-4.977.067-9.961.121-14.93.203-31.707.516-63.75 1.387-95.52 2.555Zm463.528 244.84c-2.348 1.781-6.137 1.906-10.145 1.899L7.395 463.246c-.27-.605-.372-1.312-.297-2.113.199-2.11 1.586-4.367 3.457-5.617 3.773-2.528 8.972-2.93 14.883-3.172a4691.583 4691.583 0 0 1 111.757-3.16 4688.163 4688.163 0 0 1 198.047.976c32.844.863 66.137 2.086 98.953 3.645 16.602.789 33.414 1.675 49.973 2.64 1.766.102 3.754.078 5.86.047 4.574-.062 10.265-.14 13.257 1.367 1.34.676 1.59 1.926 1.637 2.434.05.547.02 1.93-1.324 2.953Zm0 0" style="stroke:none;fill-rule:nonzero;fill-opacity:1;" fill="#000000" data-original="#000000" class=""></path><path d="M310.34 234.547c-1.8-17.3-12.172-31.426-31.711-43.176-14.27-8.586-29.852-8.277-46.317.918-9.468 5.29-17.253 13.246-21.914 22.41-9.93 19.508-6.285 45.207 8.665 61.106 10.07 10.707 24.773 16.53 39.39 16.53 7.238 0 14.461-1.429 21.082-4.405 20.125-9.047 33.082-31.5 30.805-53.383Zm-33.703 46.933c-17.32 7.79-39.367 3.364-52.422-10.52-12.977-13.8-16.137-36.112-7.516-53.054 4.031-7.93 10.801-14.832 19.063-19.445 7.367-4.113 14.492-6.172 21.32-6.172 6.227 0 12.211 1.711 17.906 5.137 17.746 10.676 26.746 22.703 28.32 37.855 1.97 18.938-9.245 38.367-26.671 46.2Zm0 0" style="stroke:none;fill-rule:nonzero;fill-opacity:1;" fill="#000000" data-original="#000000" class=""></path><path d="M273.953 201.715c-11.098-6.68-23.238-6.426-36.078.742-7.402 4.137-13.484 10.352-17.125 17.508-7.758 15.242-4.91 35.324 6.77 47.746 7.863 8.363 19.355 12.914 30.77 12.914 5.655 0 11.296-1.117 16.468-3.441 15.719-7.067 25.84-24.602 24.058-41.692-1.406-13.512-9.539-24.558-24.863-33.777Zm-.851 71.781c-14.09 6.336-32.024 2.738-42.641-8.555-10.55-11.222-13.121-29.367-6.113-43.144 3.28-6.45 8.785-12.063 15.496-15.813 5.996-3.347 11.797-5.023 17.363-5.023 5.098 0 9.996 1.406 14.664 4.215 14.36 8.637 21.645 18.402 22.93 30.73 1.601 15.41-7.524 31.219-21.7 37.59Zm0 0" style="stroke:none;fill-rule:nonzero;fill-opacity:1;" fill="#000000" data-original="#000000" class=""></path><path d="M257.195 210.96a2.023 2.023 0 0 0-1.953 2.087l.938 28.863-20.028 1.461a2.02 2.02 0 0 0 .293 4.027l21.965-1.601a2.017 2.017 0 0 0 1.871-2.078l-1.004-30.805c-.035-1.113-.972-1.973-2.082-1.953ZM50.031 309.879c1.364 1.52 3.348 1.68 4.684 1.68.195 0 .379-.004.543-.008l31.285-.598c.945-.015 2.527-.047 3.793-1.062 1.586-1.27 1.77-3.301 1.871-4.395.094-1.027.27-2.937-.918-4.426a4.202 4.202 0 0 0-1.559-1.195c.977-14.434 1.915-29.332-1.683-43.8-.98-3.954-2.606-8.907-6.492-12.118-4.97-4.11-12.918-4.262-18.91-.363-4.922 3.199-8.54 8.789-10.192 15.746-1.433 6.02-1.308 12.164-1.187 18.105l.449 22.317c-.64.254-1.266.64-1.79 1.242-1.241 1.441-1.222 3.308-1.21 4.422.015 1.133.039 3.023 1.316 4.453Zm35.692-10.606a1659.4 1659.4 0 0 0-12.473-.003l-.176-26.977 13.266-.188c.558 9.036-.008 18.192-.617 27.168Zm-16.512.004c-2.305.004-4.613.008-6.914.008l-6.55-.012-.442-21.91a280.325 280.325 0 0 1-.063-4.812l13.793-.2Zm18.977 5.848c-.086.941-.215 1.484-.376 1.613-.195.157-1 .172-1.343.18l-31.29.594c-.495.008-1.812.035-2.136-.328-.266-.297-.277-1.313-.285-1.801-.004-.473-.016-1.453.226-1.73.282-.329 1.496-.34 1.973-.34h.059l7.277.011c3.262.004 6.527-.004 9.793-.012 4.758-.011 9.52-.023 14.281.004 1.403.008 1.7.196 1.766.274.117.144.133.664.055 1.535Zm-4.06-48.078c.903 3.633 1.505 7.312 1.884 11.023l-12.961.184-.153-23.402c2.29.128 4.446.863 6.082 2.218 2.98 2.461 4.317 6.625 5.149 9.977Zm-19.276-10.07a13.38 13.38 0 0 1 4.007-1.73l.153 23.065-13.688.196c.13-2.79.426-5.555 1.063-8.235 1.41-5.941 4.418-10.66 8.465-13.296ZM102.195 309.879c1.36 1.52 3.348 1.68 4.68 1.68.2 0 .383-.004.547-.008l31.285-.598c.945-.015 2.523-.047 3.793-1.062 1.586-1.27 1.773-3.305 1.871-4.395.094-1.027.27-2.937-.918-4.426a4.202 4.202 0 0 0-1.558-1.195c.976-14.434 1.914-29.332-1.68-43.805-.985-3.953-2.61-8.902-6.496-12.117-4.965-4.105-12.918-4.258-18.91-.363-4.918 3.203-8.54 8.793-10.192 15.746-1.43 6.023-1.308 12.168-1.187 18.11l.449 22.316c-.64.254-1.266.64-1.785 1.242-1.246 1.437-1.223 3.305-1.211 4.422.012 1.133.035 3.023 1.312 4.453Zm35.692-10.606c-4.16-.02-8.317-.015-12.473-.003l-.176-26.977 13.266-.188c.559 9.036-.008 18.192-.617 27.168Zm-16.512.004c-2.305.004-4.613.008-6.914.008l-6.55-.012-.442-21.91a245.514 245.514 0 0 1-.063-4.812l13.793-.2Zm18.973 5.852c-.086.937-.211 1.48-.375 1.61-.192.156-1 .171-1.344.179l-31.285.594c-.5.011-1.813.035-2.14-.328-.266-.297-.278-1.313-.282-1.801-.008-.473-.016-1.453.226-1.735.282-.324 1.493-.336 1.973-.336h.055l7.277.012c3.266.004 6.531-.004 9.793-.012 4.762-.011 9.52-.023 14.285.004 1.399.008 1.7.196 1.766.274.113.148.133.664.05 1.539Zm-4.055-48.082c.902 3.633 1.5 7.312 1.883 11.023l-12.961.184-.153-23.402c2.286.128 4.446.863 6.083 2.218 2.976 2.461 4.316 6.625 5.148 9.977Zm-19.281-10.067a13.271 13.271 0 0 1 4.011-1.734l.149 23.066-13.684.196c.125-2.785.422-5.555 1.059-8.235 1.414-5.941 4.418-10.66 8.465-13.293ZM89.73 387.488c.98-14.433 1.915-29.332-1.68-43.804-.984-3.95-2.609-8.903-6.495-12.114-4.965-4.11-12.918-4.261-18.907-.363-4.921 3.2-8.543 8.79-10.195 15.746-1.43 6.02-1.305 12.164-1.187 18.106l.453 22.316c-.64.254-1.266.64-1.79 1.242-1.245 1.438-1.222 3.305-1.21 4.422.011 1.133.035 3.024 1.312 4.453 1.364 1.52 3.352 1.68 4.688 1.68.195 0 .375-.004.539-.008l31.285-.594c.945-.02 2.527-.05 3.793-1.066 1.586-1.266 1.773-3.3 1.875-4.395.094-1.027.266-2.933-.922-4.425-.445-.563-.992-.934-1.559-1.196Zm-33.984-.601-.441-21.91a280.325 280.325 0 0 1-.063-4.813l13.793-.2.176 26.923c-2.305.008-4.61.011-6.914.011Zm17.504-.004-.172-26.977 13.262-.187c.562 9.035-.008 18.191-.617 27.168-4.157-.02-8.317-.012-12.473-.004Zm10.879-42.223c.902 3.633 1.504 7.313 1.883 11.02l-12.961.187-.153-23.406c2.286.129 4.446.867 6.082 2.219 2.98 2.465 4.317 6.629 5.149 9.98Zm-19.277-10.07a13.49 13.49 0 0 1 4.007-1.735l.153 23.07-13.688.196c.13-2.789.426-5.555 1.063-8.234 1.41-5.942 4.418-10.664 8.465-13.297Zm23.335 58.148c-.085.942-.214 1.48-.374 1.614-.196.156-1 .171-1.344.175l-31.285.598c-.496.008-1.817.035-2.141-.332-.266-.293-.277-1.309-.285-1.8-.004-.47-.016-1.45.226-1.731.282-.325 1.496-.336 1.973-.336h.059l7.277.008c3.277.007 6.559 0 9.84-.008 4.746-.012 9.488-.024 14.234.004 1.403.007 1.703.191 1.766.273.117.145.133.664.055 1.535ZM142.5 397.504c1.586-1.27 1.773-3.3 1.871-4.395.094-1.027.27-2.933-.918-4.425-.45-.563-.992-.93-1.558-1.196.976-14.433 1.914-29.332-1.68-43.804-.985-3.954-2.61-8.903-6.496-12.114-4.965-4.11-12.918-4.261-18.91-.363-4.918 3.2-8.54 8.793-10.192 15.746-1.43 6.024-1.308 12.164-1.187 18.106l.449 22.316c-.64.258-1.266.64-1.785 1.246-1.246 1.434-1.223 3.3-1.211 4.418.012 1.133.031 3.024 1.312 4.453 1.364 1.52 3.352 1.68 4.684 1.68.195 0 .379-.004.539-.008l31.289-.594c.945-.023 2.523-.05 3.793-1.066Zm-34.59-10.617-.441-21.91a245.514 245.514 0 0 1-.063-4.813l13.793-.2.176 26.923c-2.309.008-4.61.011-6.918.011Zm17.504-.004-.176-26.977 13.266-.187c.559 9.035-.012 18.191-.617 27.168-4.16-.02-8.317-.012-12.473-.004Zm10.879-42.223c.902 3.633 1.5 7.313 1.883 11.02l-12.961.187-.153-23.406c2.286.133 4.446.867 6.083 2.219 2.976 2.465 4.316 6.625 5.148 9.98Zm-19.281-10.07a13.469 13.469 0 0 1 4.011-1.735l.149 23.07-13.684.196c.125-2.789.422-5.555 1.059-8.234 1.414-5.942 4.418-10.664 8.465-13.297Zm-9.668 60.535c-.496.008-1.817.035-2.14-.332-.266-.297-.278-1.313-.282-1.797-.008-.473-.016-1.453.226-1.734.282-.325 1.493-.336 1.973-.336h.059l7.273.008c3.281.007 6.563 0 9.844-.008 4.742-.012 9.488-.024 14.234.004 1.399.007 1.7.191 1.766.273.117.145.133.664.055 1.54-.086.937-.215 1.48-.375 1.609-.196.156-1.004.171-1.348.18ZM410.684 299.875c.98-14.434 1.914-29.332-1.68-43.8-.984-3.954-2.61-8.903-6.496-12.118-4.965-4.11-12.918-4.258-18.91-.363-4.918 3.199-8.54 8.793-10.192 15.746-1.43 6.02-1.304 12.164-1.187 18.105l.453 22.317a4.492 4.492 0 0 0-1.79 1.246c-1.241 1.433-1.222 3.3-1.21 4.418.012 1.133.035 3.023 1.312 4.453 1.364 1.52 3.348 1.68 4.684 1.68.195 0 .379-.004.543-.008l31.285-.594c.945-.02 2.527-.05 3.793-1.066 1.586-1.27 1.774-3.301 1.875-4.391.094-1.027.27-2.934-.922-4.43-.445-.558-.992-.93-1.558-1.195Zm-33.985-.602-.441-21.91a245.514 245.514 0 0 1-.063-4.812l13.793-.2.176 26.926c-2.305.004-4.613.008-6.914.008Zm17.504-.003-.176-26.977 13.266-.188c.559 9.036-.012 18.192-.617 27.168a1659.4 1659.4 0 0 0-12.473-.003Zm10.879-42.223c.902 3.633 1.5 7.312 1.883 11.023l-12.961.184-.152-23.402c2.285.128 4.445.863 6.082 2.218 2.98 2.461 4.316 6.625 5.148 9.977Zm-19.281-10.07a13.402 13.402 0 0 1 4.012-1.73l.152 23.065-13.688.196c.125-2.79.422-5.555 1.059-8.235 1.414-5.941 4.422-10.66 8.465-13.296Zm23.34 58.152c-.086.937-.215 1.48-.375 1.61-.196.156-1.004.171-1.348.179l-31.285.594c-.496.008-1.813.035-2.137-.328-.27-.297-.277-1.313-.285-1.801-.004-.473-.016-1.453.226-1.73.282-.329 1.493-.34 1.973-.34h.059l7.273.011c3.266.004 6.531-.004 9.793-.012 4.762-.011 9.52-.023 14.285.004 1.403.008 1.7.196 1.766.274.117.148.133.664.055 1.539ZM423.148 309.879c1.36 1.52 3.344 1.68 4.68 1.68.195 0 .379-.004.543-.008l31.29-.598c.944-.015 2.523-.047 3.792-1.062 1.586-1.27 1.77-3.301 1.871-4.395.094-1.027.27-2.933-.922-4.426-.445-.562-.988-.933-1.554-1.195.976-14.434 1.914-29.332-1.684-43.8-.98-3.954-2.605-8.907-6.492-12.118-4.969-4.11-12.918-4.262-18.91-.363-4.918 3.199-8.54 8.793-10.192 15.746-1.433 6.02-1.308 12.164-1.187 18.105l.449 22.317c-.644.258-1.266.64-1.789 1.242-1.242 1.437-1.223 3.305-1.211 4.422.016 1.133.035 3.023 1.316 4.453Zm35.692-10.606a1659.4 1659.4 0 0 0-12.473-.003l-.176-26.977 13.266-.188c.559 9.036-.012 18.192-.617 27.168Zm-16.512.004c-2.308.004-4.613.008-6.914.008l-6.55-.012-.442-21.91a245.514 245.514 0 0 1-.063-4.812l13.793-.2Zm18.973 5.852c-.086.937-.211 1.48-.375 1.61-.196.156-1 .171-1.344.175l-31.285.598c-.496.011-1.817.035-2.14-.332-.266-.297-.278-1.313-.282-1.797-.008-.473-.02-1.453.223-1.735.28-.324 1.496-.336 1.972-.336h.059l7.277.012c3.266.004 6.528-.004 9.793-.012 4.758-.015 9.52-.027 14.281.004 1.403.008 1.704.192 1.766.274.117.148.137.664.055 1.539Zm-4.055-48.082c.902 3.633 1.5 7.312 1.883 11.023l-12.965.184-.152-23.406c2.289.132 4.449.867 6.086 2.222 2.976 2.461 4.316 6.625 5.148 9.977Zm-19.281-10.067a13.271 13.271 0 0 1 4.012-1.734l.148 23.066-13.684.196c.125-2.785.422-5.555 1.059-8.235 1.414-5.941 4.418-10.66 8.465-13.293ZM410.684 387.488c.98-14.433 1.914-29.332-1.68-43.804-.984-3.95-2.61-8.903-6.496-12.114-4.965-4.11-12.918-4.261-18.906-.363-4.922 3.2-8.543 8.79-10.196 15.746-1.43 6.02-1.304 12.164-1.187 18.106l.453 22.316a4.52 4.52 0 0 0-1.79 1.242c-1.241 1.438-1.222 3.305-1.21 4.422.012 1.129.035 3.024 1.312 4.453 1.364 1.52 3.352 1.68 4.688 1.68.195 0 .375-.004.539-.008l31.285-.594c.945-.02 2.527-.05 3.793-1.066 1.59-1.27 1.774-3.3 1.875-4.395.094-1.023.27-2.933-.922-4.425-.445-.563-.992-.934-1.558-1.196Zm-33.985-.601-.441-21.91a245.514 245.514 0 0 1-.063-4.813l13.793-.2.176 26.923c-2.305.008-4.61.011-6.914.011Zm17.504-.004-.176-26.977 13.266-.187c.559 9.035-.012 18.191-.617 27.168-4.156-.02-8.317-.012-12.473-.004Zm10.879-42.223c.902 3.633 1.5 7.313 1.883 11.02l-12.961.187-.152-23.406c2.285.129 4.445.867 6.082 2.219 2.98 2.465 4.316 6.629 5.148 9.98Zm-19.281-10.07a13.512 13.512 0 0 1 4.012-1.735l.152 23.07-13.688.196c.125-2.789.422-5.555 1.059-8.234 1.414-5.942 4.422-10.664 8.465-13.297Zm23.34 58.152c-.086.938-.211 1.477-.375 1.61-.196.156-1.004.171-1.348.175l-31.285.598c-.496.008-1.813.035-2.14-.332-.266-.297-.278-1.313-.282-1.8-.004-.47-.016-1.454.223-1.731.285-.328 1.496-.34 1.976-.34h.059l7.273.012a2756.2 2756.2 0 0 0 9.844-.012c4.746-.012 9.484-.02 14.234.004 1.403.008 1.7.195 1.766.277.117.145.133.664.055 1.54ZM463.453 397.504c1.586-1.27 1.77-3.305 1.871-4.395.094-1.027.27-2.937-.918-4.425a4.202 4.202 0 0 0-1.558-1.196c.976-14.433 1.914-29.332-1.68-43.804-.984-3.954-2.61-8.903-6.496-12.118-4.965-4.105-12.918-4.257-18.91-.359-4.918 3.2-8.54 8.79-10.192 15.746-1.43 6.02-1.308 12.164-1.187 18.106l.449 22.316c-.64.258-1.266.64-1.789 1.246-1.242 1.434-1.223 3.3-1.207 4.418.012 1.133.031 3.024 1.312 4.453 1.36 1.52 3.352 1.68 4.684 1.68.195 0 .379-.004.54-.008l31.288-.594c.945-.023 2.527-.05 3.793-1.066Zm-34.59-10.617-.441-21.91a245.514 245.514 0 0 1-.063-4.813l13.793-.2.176 26.923c-2.305.008-4.61.011-6.914.011Zm17.504-.004-.176-26.977 13.266-.187c.559 9.035-.012 18.191-.617 27.168-4.16-.02-8.317-.012-12.473-.004Zm10.88-42.223c.901 3.633 1.5 7.313 1.882 11.02l-12.965.187-.152-23.406c2.289.133 4.449.867 6.086 2.219 2.976 2.465 4.316 6.629 5.148 9.98Zm-19.282-10.07a13.469 13.469 0 0 1 4.012-1.735l.148 23.07-13.684.196c.125-2.789.422-5.555 1.059-8.234 1.414-5.942 4.418-10.664 8.465-13.297Zm-9.668 60.535c-.496.008-1.817.035-2.14-.332-.266-.297-.278-1.313-.282-1.797-.008-.473-.02-1.453.223-1.734.28-.325 1.496-.336 1.972-.336h.059l7.277.008c3.278.007 6.563 0 9.84-.008 4.746-.012 9.492-.024 14.234.004 1.403.007 1.704.191 1.766.273.117.145.137.664.055 1.54-.086.937-.211 1.48-.375 1.609-.196.156-1 .171-1.344.175Zm0 0" style="stroke:none;fill-rule:nonzero;fill-opacity:1;" fill="#000000" data-original="#000000" class=""></path></g></svg>