<svg xmlns="http://www.w3.org/2000/svg" version="1.1" xmlns:xlink="http://www.w3.org/1999/xlink" width="512" height="512" x="0" y="0" viewBox="0 0 512.009 512.009" style="enable-background:new 0 0 512 512" xml:space="preserve" class=""><g transform="matrix(-1,4.898587196589413e-16,4.898587196589413e-16,1,512.0085296630859,-2.2737367544323206e-13)"><path fill="#fac870" d="M257.023 21.527 235.03.129c-52.29-1.71-104.75 13.51-143.67 48.79-60.27 54.61-73.71 150.62-31.26 223.31 21.74 37.05 38.73 72.38 38.73 126.75v98.03c0 8.28 6.71 15 15 15h121.2l21.993-30.679z" opacity="1" data-original="#8095ff" class=""></path><path fill="#ffa300" d="m460.68 325.429-32.34 16.56 7.31 61.44c1.77 14.82-3.17 29.47-13.55 40.2-10.06 10.39-21.05 13.93-30.95 14.73-8.67.7-16.51-.71-22.17-1.47-7.22-.97-15.49-2.07-23.41-2.43-5.5-.26-10.83-.17-15.54.58-12.13 1.92-13.95 6.92-14.77 11.88v.02c-.09.55-5.39 32.52-5.39 32.52a15.002 15.002 0 0 1-14.8 12.55h-60.04V.129c7.94.26 15.87.91 23.74 1.94l.01.02c64.31 8.4 125.58 42.07 156.99 95.82 18.7 31.99 25.32 67.83 19.68 106.53-2.02 13.81 1.23 27.75 9.14 39.26l26.86 39.06c10.03 14.57 4.91 34.63-10.77 42.67z" opacity="1" data-original="#6666ff" class=""></path><path fill="#ebaa95" d="M249.678 203.96a40.64 40.64 0 0 1-14.648 2.726c-22.52 0-40.847-18.317-40.847-40.847 0-22.52 18.326-40.847 40.847-40.847 5.161 0 10.098.972 14.648 2.728V60.566L235.03 48.392h-25.044c-7.516 0-13.616 6.091-13.616 13.616v10.511l-7.434-7.434c-5.3-5.3-13.931-5.322-19.252 0l-35.409 35.409c-5.319 5.319-5.319 13.942 0 19.252l7.434 7.443h-10.52c-7.516 0-13.616 6.091-13.616 13.616v50.078c0 7.516 6.1 13.616 13.616 13.616h10.52l-7.434 7.434c-5.319 5.319-5.319 13.942 0 19.262l35.409 35.409c5.31 5.319 13.933 5.319 19.252 0l7.434-7.443v10.52c0 7.525 6.1 13.616 13.616 13.616h25.044l14.648-11.244z" opacity="1" data-original="#e8f1fd" class=""></path><path fill="#e78c6f" d="M352.487 140.805v50.078c0 7.516-6.1 13.616-13.616 13.616h-10.52l7.434 7.434a13.61 13.61 0 0 1 0 19.262l-35.409 35.409a13.618 13.618 0 0 1-19.253 0l-7.443-7.443v10.52c0 7.525-6.091 13.616-13.616 13.616H235.03v-76.61c22.52 0 40.847-18.317 40.847-40.847 0-22.52-18.327-40.847-40.847-40.847V48.392h25.034c7.525 0 13.616 6.091 13.616 13.616v10.511l7.443-7.434a13.623 13.623 0 0 1 19.253 0l35.409 35.409c2.56 2.551 3.994 6.018 3.994 9.631s-1.434 7.071-3.994 9.622l-7.434 7.443h10.52c7.516 0 13.616 6.09 13.616 13.615z" opacity="1" data-original="#cfdbfd" class=""></path><path fill="#e78c6f" d="M235.03 200.219c-18.96 0-34.38-15.42-34.38-34.38 0-18.95 15.42-34.37 34.38-34.37l13.104-13.337-13.104-16.663c-35.5 0-64.38 28.88-64.38 64.37 0 35.5 28.88 64.38 64.38 64.38l13.104-22.384z" opacity="1" data-original="#cfdbfd" class=""></path><path fill="#e26b44" d="M299.41 165.839c0 35.5-28.88 64.38-64.38 64.38v-30c18.96 0 34.38-15.42 34.38-34.38 0-18.95-15.42-34.37-34.38-34.37v-30c35.5 0 64.38 28.88 64.38 64.37z" opacity="1" data-original="#b3c7ef" class=""></path></g></svg>