<svg xmlns="http://www.w3.org/2000/svg" version="1.1" xmlns:xlink="http://www.w3.org/1999/xlink" width="512" height="512" x="0" y="0" viewBox="0 0 682.667 682.667" style="enable-background:new 0 0 512 512" xml:space="preserve" class=""><g><defs><clipPath id="a" clipPathUnits="userSpaceOnUse"><path d="M0 512h512V0H0Z" fill="#000000" opacity="1" data-original="#000000"></path></clipPath></defs><g clip-path="url(#a)" transform="matrix(1.33333 0 0 -1.33333 0 682.667)"><path d="m0 0-55.028 12.115h-49.197L-159.253 0c-20.554-6.052-34.666-24.918-34.666-46.344v-48.6a8.632 8.632 0 0 1 8.632-8.632H26.034a8.632 8.632 0 0 1 8.632 8.632v48.6C34.666-24.918 20.553-6.052 0 0" style="fill-opacity:1;fill-rule:nonzero;stroke:none" transform="translate(244.79 336.38)" fill="#ffc265" data-original="#ffc265" class=""></path><path d="m0 0-55.028 12.115h-49.197l69.331-23.643C-14.34-17.58-.228-36.447-.228-57.873v-45.703h26.262a8.633 8.633 0 0 1 8.632 8.633v48.599C34.666-24.918 20.553-6.052 0 0" style="fill-opacity:1;fill-rule:nonzero;stroke:none" transform="translate(244.79 336.38)" fill="#ffa812" data-original="#ffa812" class=""></path><path d="M0 0v33.797h-49.197V0c0-13.585 11.013-24.599 24.598-24.599C-11.013-24.599 0-13.585 0 0" style="fill-opacity:1;fill-rule:nonzero;stroke:none" transform="translate(189.762 348.495)" fill="#fff3de" data-original="#fff3de" class=""></path><path d="M0 0h-12.349v6.256c0 13.393-5.498 26.37-15.647 35.109-7.957 6.851-19.141 12.831-33.916 12.996-14.774-.165-25.958-6.145-33.915-12.996-10.149-8.739-15.647-21.716-15.647-35.109V1.175h-12.349v-23.89c0-6.827 5.535-12.363 12.363-12.363.279-13.018 5.75-25.548 15.633-34.058 7.957-6.851 19.141-15.39 33.915-15.554 14.775.164 25.959 8.703 33.916 15.554 9.883 8.51 15.354 21.04 15.633 34.058C-5.535-35.078 0-29.542 0-22.715z" style="fill-opacity:1;fill-rule:nonzero;stroke:none" transform="translate(227.075 446.545)" fill="#fff3de" data-original="#fff3de" class=""></path><path d="M0 0v6.256c0 13.393-5.498 26.37-15.647 35.109a56.947 56.947 0 0 1-7.035 5.176 48.404 48.404 0 0 0 1.867-13.287l-.013-68.332c-.28-13.018-5.75-25.548-15.633-34.058-5.969-5.14-13.754-11.228-23.509-14.02a39.276 39.276 0 0 1 10.407-1.534c14.775.164 25.959 8.703 33.916 15.554 9.883 8.51 15.354 21.04 15.633 34.058 6.828 0 12.363 5.536 12.363 12.363V0z" style="fill-opacity:1;fill-rule:nonzero;stroke:none" transform="translate(214.726 446.545)" fill="#ffe5c2" data-original="#ffe5c2"></path><path d="M0 0s-12.085 3.604-21.229 13.743c-5.45 6.043-14.262 7.629-21.347 3.626-18.32-10.348-51.855-24.478-81.247-10.746v18.069c0 23.547 19.088 42.635 42.635 42.635h25.35a25.733 25.733 0 0 0 15.575-5.249 25.738 25.738 0 0 1 14.985-5.243C-11.225 56.513 0 45.028 0 30.971Z" style="fill-opacity:1;fill-rule:nonzero;stroke:none" transform="translate(227.075 437.173)" fill="#3e5959" data-original="#3e5959" class=""></path><path d="M0 0a25.723 25.723 0 0 0-10.95 2.746 48.188 48.188 0 0 0 3.064-16.955l-.005-23.097c4.45-.273 8.766-2.267 11.939-5.787 9.145-10.139 21.23-13.742 21.23-13.742v30.97C25.278-11.808 14.053-.322 0 0" style="fill-opacity:1;fill-rule:nonzero;stroke:none" transform="translate(201.797 494.008)" fill="#384848" data-original="#384848" class=""></path><path d="M0 0h-17.179c-5.42 0-9.814 4.394-9.814 9.813v96.196H9.813V9.813C9.813 4.394 5.419 0 0 0" style="fill-opacity:1;fill-rule:nonzero;stroke:none" transform="translate(72.21 7.5)" fill="#efe2dd" data-original="#efe2dd"></path><path d="M0 0h-374.559c-16.975 0-30.735 13.761-30.735 30.736v131.566c0 16.975 13.76 30.736 30.735 30.736H0c16.975 0 30.736-13.761 30.736-30.736V30.736C30.736 13.761 16.975 0 0 0" style="fill-opacity:1;fill-rule:nonzero;stroke:none" transform="translate(412.815 84.114)" fill="#fff5f5" data-original="#fff5f5" class=""></path><path d="M0 0v33.797h-49.197V0C-49.197-13.585 0-13.585 0 0" style="fill-opacity:1;fill-rule:nonzero;stroke:none" transform="translate(324.653 189.008)" fill="#fff3de" data-original="#fff3de" class=""></path><path d="M0 0h-2.428v-162.302c0-16.975-13.761-30.736-30.736-30.736H0c16.975 0 30.736 13.761 30.736 30.736v131.566C30.736-13.761 16.975 0 0 0" style="fill-opacity:1;fill-rule:nonzero;stroke:none" transform="translate(412.815 277.152)" fill="#efe2dd" data-original="#efe2dd"></path><path d="m0 0-55.027 12.114h-49.198L-159.252 0c-20.555-6.052-34.667-24.918-34.667-46.345v-106.517c0-9.13 7.401-16.532 16.532-16.532H18.135c9.13 0 16.531 7.402 16.531 16.532v106.517C34.666-24.918 20.554-6.052 0 0" style="fill-opacity:1;fill-rule:nonzero;stroke:none" transform="translate(379.68 176.894)" fill="#91c9c6" data-original="#6bdae8" class="" opacity="1"></path><path d="m0 0-55.027 12.114h-49.198l71.061-22.303C-12.61-16.241 1.502-35.107 1.502-56.534v-106.517a16.47 16.47 0 0 0-1.265-6.343h17.898c9.13 0 16.531 7.402 16.531 16.532v106.517C34.666-24.918 20.554-6.052 0 0" style="fill-opacity:1;fill-rule:nonzero;stroke:none" transform="translate(379.68 176.894)" fill="#91c9c6" data-original="#00c8de" class="" opacity="1"></path><path d="M0 0c0 12.598-10.06 22.891-22.654 23.18-13.077.3-14.077 9.403-27.388 9.403h-22.719c-21.101 0-38.208-17.107-38.208-38.209l.037-34.492c.074-30.633 24.966-58.031 55.599-57.957h.001C-24.699-98.001.073-70.484 0-39.851Z" style="fill-opacity:1;fill-rule:nonzero;stroke:none" transform="translate(355.531 309.793)" fill="#3e5959" data-original="#3e5959" class=""></path><path d="M0 0c-10.675.245-13.305 6.353-21.149 8.59C-14.742 4.458-10.51-2.737-10.51-10.906v-57.85c.053-21.747-12.425-41.912-30.625-51.814a50.93 50.93 0 0 1 8.456-.685h.001c30.633.073 55.406 27.591 55.332 58.224v39.851C22.654-10.582 12.595-.289 0 0" style="fill-opacity:1;fill-rule:nonzero;stroke:none" transform="translate(332.877 332.973)" fill="#384848" data-original="#384848" class=""></path><path d="M0 0h-127.511c-9.15 0-16.569-7.418-16.569-16.569v-65.475c0-9.151 7.419-16.569 16.569-16.569h45.277c9.007 0 16.31-7.303 16.31-16.31v-22.758c0-4.392 5.576-6.274 8.237-2.78l26.98 35.42a16.308 16.308 0 0 0 12.975 6.428H0c9.15 0 16.569 7.418 16.569 16.569v65.475C16.569-7.418 9.15 0 0 0" style="fill-opacity:1;fill-rule:nonzero;stroke:none" transform="translate(487.91 504.333)" fill="#e78c6f" data-original="#98db7c" class="" opacity="1"></path><path d="M0 0h-33.341a15.95 15.95 0 0 1-12.69-6.287l-2.16-2.836v-29.945c0-4.392 5.576-6.274 8.237-2.78l26.979 35.42A16.308 16.308 0 0 0 0 0" style="fill-opacity:1;fill-rule:nonzero;stroke:none" transform="translate(470.178 405.72)" fill="#e78c6f" data-original="#6acb44" class="" opacity="1"></path><path d="M0 0v-89.018h16.595c9.15 0 16.569 7.418 16.569 16.569v65.475c0 9.151-7.419 16.569-16.569 16.569H-9.596C-4.296 9.595 0 5.299 0 0" style="fill-opacity:1;fill-rule:nonzero;stroke:none" transform="translate(471.315 494.738)" fill="#e78c6f" data-original="#6acb44" class="" opacity="1"></path><path d="M0 0v-29.678c0-9.13 7.401-16.531 16.532-16.531h195.522c9.13 0 16.531 7.401 16.531 16.531V0c0 30.911-25.059 55.969-55.97 55.969H55.97C25.059 55.969 0 30.911 0 0" style="fill-opacity:1;fill-rule:nonzero;stroke:none" transform="translate(185.762 53.71)" fill="#ffa300" data-original="#ff646f" class="" opacity="1"></path><path d="M0 0h-33.164c30.911 0 55.97-25.058 55.97-55.969v-46.21h16.632c9.13 0 16.532 7.402 16.532 16.532v29.678C55.97-25.058 30.911 0 0 0" style="fill-opacity:1;fill-rule:nonzero;stroke:none" transform="translate(358.377 109.679)" fill="#ffa300" data-original="#ff4755" class="" opacity="1"></path><path d="m0 0-55.027 12.114h-49.198L-159.252 0c-20.555-6.052-34.667-24.918-34.667-46.345v-106.517c0-9.13 7.401-16.532 16.532-16.532H18.135c9.13 0 16.531 7.402 16.531 16.532v106.517C34.666-24.918 20.554-6.052 0 0Z" style="stroke-width:15;stroke-linecap:round;stroke-linejoin:round;stroke-miterlimit:10;stroke-dasharray:none;stroke-opacity:1" transform="translate(379.68 176.894)" fill="none" stroke="#000000" stroke-width="15" stroke-linecap="round" stroke-linejoin="round" stroke-miterlimit="10" stroke-dasharray="none" stroke-opacity="" data-original="#000000" class=""></path><path d="M0 0c0 12.598-10.06 22.891-22.654 23.18-13.077.3-14.077 9.403-27.388 9.403h-22.719c-21.101 0-38.208-17.107-38.208-38.209l.037-34.492c.074-30.633 24.966-58.031 55.599-57.957h.001C-24.699-98.001.073-70.484 0-39.851Z" style="stroke-width:15;stroke-linecap:round;stroke-linejoin:round;stroke-miterlimit:10;stroke-dasharray:none;stroke-opacity:1" transform="translate(355.531 309.793)" fill="none" stroke="#000000" stroke-width="15" stroke-linecap="round" stroke-linejoin="round" stroke-miterlimit="10" stroke-dasharray="none" stroke-opacity="" data-original="#000000" class=""></path><path d="M0 0c0 30.911-25.059 55.969-55.97 55.969h-116.645c-30.911 0-55.97-25.058-55.97-55.969" style="stroke-width:15;stroke-linecap:round;stroke-linejoin:round;stroke-miterlimit:10;stroke-dasharray:none;stroke-opacity:1" transform="translate(414.347 53.71)" fill="none" stroke="#000000" stroke-width="15" stroke-linecap="round" stroke-linejoin="round" stroke-miterlimit="10" stroke-dasharray="none" stroke-opacity="" data-original="#000000" class=""></path><path d="M0 0v28.979" style="stroke-width:15;stroke-linecap:round;stroke-linejoin:round;stroke-miterlimit:10;stroke-dasharray:none;stroke-opacity:1" transform="translate(324.653 189.008)" fill="none" stroke="#000000" stroke-width="15" stroke-linecap="round" stroke-linejoin="round" stroke-miterlimit="10" stroke-dasharray="none" stroke-opacity="" data-original="#000000" class=""></path><path d="M0 0v-29.005" style="stroke-width:15;stroke-linecap:round;stroke-linejoin:round;stroke-miterlimit:10;stroke-dasharray:none;stroke-opacity:1" transform="translate(275.456 218.013)" fill="none" stroke="#000000" stroke-width="15" stroke-linecap="round" stroke-linejoin="round" stroke-miterlimit="10" stroke-dasharray="none" stroke-opacity="" data-original="#000000" class=""></path><path d="M0 0v48.327c0 16.975-13.762 30.736-30.736 30.736h-57.285" style="stroke-width:15;stroke-linecap:round;stroke-linejoin:round;stroke-miterlimit:10;stroke-dasharray:none;stroke-opacity:1" transform="translate(443.552 198.09)" fill="none" stroke="#000000" stroke-width="15" stroke-linecap="round" stroke-linejoin="round" stroke-miterlimit="10" stroke-dasharray="none" stroke-opacity="" data-original="#000000" class=""></path><path d="M0 0c16.264.798 29.205 14.236 29.205 30.697v53.24" style="stroke-width:15;stroke-linecap:round;stroke-linejoin:round;stroke-miterlimit:10;stroke-dasharray:none;stroke-opacity:1" transform="translate(414.347 84.153)" fill="none" stroke="#000000" stroke-width="15" stroke-linecap="round" stroke-linejoin="round" stroke-miterlimit="10" stroke-dasharray="none" stroke-opacity="" data-original="#000000" class=""></path><path d="M0 0h-42.461c-16.976 0-30.736-13.761-30.736-30.736v-131.566c0-16.975 13.76-30.736 30.736-30.736h147.504" style="stroke-width:15;stroke-linecap:round;stroke-linejoin:round;stroke-miterlimit:10;stroke-dasharray:none;stroke-opacity:1" transform="translate(80.718 277.152)" fill="none" stroke="#000000" stroke-width="15" stroke-linecap="round" stroke-linejoin="round" stroke-miterlimit="10" stroke-dasharray="none" stroke-opacity="" data-original="#000000" class=""></path><path d="M0 0h-133.874" style="stroke-width:15;stroke-linecap:round;stroke-linejoin:round;stroke-miterlimit:10;stroke-dasharray:none;stroke-opacity:1" transform="translate(244.591 277.152)" fill="none" stroke="#000000" stroke-width="15" stroke-linecap="round" stroke-linejoin="round" stroke-miterlimit="10" stroke-dasharray="none" stroke-opacity="" data-original="#000000" class=""></path><path d="M0 0v-66.801c0-5.42 4.394-9.813 9.813-9.813h17.18c5.419 0 9.813 4.393 9.813 9.813V0" style="stroke-width:15;stroke-linecap:round;stroke-linejoin:round;stroke-miterlimit:10;stroke-dasharray:none;stroke-opacity:1" transform="translate(45.217 84.114)" fill="none" stroke="#000000" stroke-width="15" stroke-linecap="round" stroke-linejoin="round" stroke-miterlimit="10" stroke-dasharray="none" stroke-opacity="" data-original="#000000" class=""></path><path d="m0 0-55.028-12.115c-20.554-6.052-34.666-24.918-34.666-46.344v-12.883" style="stroke-width:15;stroke-linecap:round;stroke-linejoin:round;stroke-miterlimit:10;stroke-dasharray:none;stroke-opacity:1" transform="translate(140.565 348.495)" fill="none" stroke="#000000" stroke-width="15" stroke-linecap="round" stroke-linejoin="round" stroke-miterlimit="10" stroke-dasharray="none" stroke-opacity="" data-original="#000000" class=""></path><path d="M0 0a48.276 48.276 0 0 1-11.235 4.937l-55.028 12.114" style="stroke-width:15;stroke-linecap:round;stroke-linejoin:round;stroke-miterlimit:10;stroke-dasharray:none;stroke-opacity:1" transform="translate(256.025 331.443)" fill="none" stroke="#000000" stroke-width="15" stroke-linecap="round" stroke-linejoin="round" stroke-miterlimit="10" stroke-dasharray="none" stroke-opacity="" data-original="#000000" class=""></path><path d="M0 0v-21.703c0-13.586 11.013-24.599 24.599-24.599 13.585 0 24.598 11.013 24.598 24.599V0" style="stroke-width:15;stroke-linecap:round;stroke-linejoin:round;stroke-miterlimit:10;stroke-dasharray:none;stroke-opacity:1" transform="translate(140.565 370.198)" fill="none" stroke="#000000" stroke-width="15" stroke-linecap="round" stroke-linejoin="round" stroke-miterlimit="10" stroke-dasharray="none" stroke-opacity="" data-original="#000000" class=""></path><path d="M0 0s-12.085 3.604-21.229 13.743c-5.45 6.043-14.262 7.629-21.347 3.626-18.32-10.348-51.855-24.478-81.247-10.746v18.069c0 23.547 19.088 42.635 42.635 42.635h25.35a25.733 25.733 0 0 0 15.575-5.249 25.738 25.738 0 0 1 14.985-5.243C-11.225 56.513 0 45.028 0 30.971Z" style="stroke-width:15;stroke-linecap:round;stroke-linejoin:round;stroke-miterlimit:10;stroke-dasharray:none;stroke-opacity:1" transform="translate(227.075 437.173)" fill="none" stroke="#000000" stroke-width="15" stroke-linecap="round" stroke-linejoin="round" stroke-miterlimit="10" stroke-dasharray="none" stroke-opacity="" data-original="#000000" class=""></path><path d="M0 0v-19.965c0-6.827 5.535-12.363 12.363-12.363.279-13.018 5.75-25.548 15.633-34.058 7.957-6.851 19.141-15.39 33.916-15.554 14.774.164 25.959 8.703 33.915 15.554 9.883 8.51 15.354 21.04 15.633 34.058 6.828 0 12.363 5.536 12.363 12.363v13.342" style="stroke-width:15;stroke-linecap:round;stroke-linejoin:round;stroke-miterlimit:10;stroke-dasharray:none;stroke-opacity:1" transform="translate(103.251 443.795)" fill="none" stroke="#000000" stroke-width="15" stroke-linecap="round" stroke-linejoin="round" stroke-miterlimit="10" stroke-dasharray="none" stroke-opacity="" data-original="#000000" class=""></path><path d="M0 0h-127.511c-9.15 0-16.569-7.418-16.569-16.569v-65.475c0-9.151 7.419-16.569 16.569-16.569h45.277c9.007 0 16.31-7.303 16.31-16.31v-22.758c0-4.392 5.576-6.274 8.237-2.78l26.98 35.42a16.308 16.308 0 0 0 12.975 6.428H0c9.15 0 16.569 7.418 16.569 16.569v65.475C16.569-7.418 9.15 0 0 0Z" style="stroke-width:15;stroke-linecap:round;stroke-linejoin:round;stroke-miterlimit:10;stroke-dasharray:none;stroke-opacity:1" transform="translate(487.91 504.333)" fill="none" stroke="#000000" stroke-width="15" stroke-linecap="round" stroke-linejoin="round" stroke-miterlimit="10" stroke-dasharray="none" stroke-opacity="" data-original="#000000" class=""></path></g></g></svg>